<?xml version="1.0" encoding="utf-8"?>
<!-- Generator: Adobe Illustrator 21.1.0, SVG Export Plug-In . SVG Version: 6.00 Build 0)  -->
<svg version="1.1" id="Ebene_1" xmlns="http://www.w3.org/2000/svg" xmlns:xlink="http://www.w3.org/1999/xlink" x="0px" y="0px"
	 viewBox="0 0 2000 2000" style="enable-background:new 0 0 2000 2000;" xml:space="preserve">
<style type="text/css">
	.st0{fill:#1E2243;}
	.st1{fill-rule:evenodd;clip-rule:evenodd;fill:#049639;}
	.st2{fill-rule:evenodd;clip-rule:evenodd;fill:#1E2243;}
	.st3{fill:#049639;}
</style>
<g>
	<path class="st0" d="M582.6,889.2v132.5h45.7c26.9,0,54.5-8.3,54.5-36.2c0-17.3-11.4-29-31.1-31.7v-0.4
		c18.8-3.8,27.3-15.6,27.3-30.2c0-25.4-21.1-34-50.9-34L582.6,889.2L582.6,889.2z M613,911h8.7c14,0,26.8,2.5,26.8,16.3
		c0,13.3-10.4,16.9-29,16.9H613L613,911L613,911z M613,964.9h7.2c21.1,0,31.3,4.4,31.3,16.5c0,12.9-9.9,18-31.5,18h-7L613,964.9
		L613,964.9z"/>
	<polygon class="st0" points="705.2,889.2 705.2,1021.6 791.2,1021.6 791.2,997.7 735.9,997.7 735.9,966 786,966 786,942.5 
		735.9,942.5 735.9,912.9 789.8,912.9 789.8,889.2 705.2,889.2 	"/>
	<path class="st0" d="M943,891.5c-10.6-3.4-21.4-4.6-34-4.6c-29.2,0-50.7,14.2-50.7,39.7c0,19.4,12.1,30.2,34.3,38.3
		c19,7,24.9,11.8,24.9,20.3c0,9.7-9.1,14.8-22.4,14.8c-9.3,0-21.3-2.3-33.2-7.8l-2.7,26.2c11.8,3.8,24.1,5.7,37.6,5.7
		c32.3,0,52.4-15.9,52.4-42.1c0-20.1-11.8-31.3-35.9-40c-18.8-7-23.2-11-23.2-18.4c0-8.5,8.9-13.3,22-13.3c8.5,0,17.6,1.5,28.7,5.7
		L943,891.5L943,891.5z"/>
	<polygon class="st0" points="1083.2,889.2 1051.7,889.2 1051.7,940.8 1001.8,940.8 1001.8,889.2 970.3,889.2 970.3,1021.6 
		1001.8,1021.6 1001.8,965.5 1051.7,965.5 1051.7,1021.6 1083.2,1021.6 1083.2,889.2 	"/>
	<path class="st0" d="M1169.2,889.2v132.5h31.5v-52.9h7.4c13.5,0,18.4,3.8,23.5,17.8l12.7,35.1h33.4l-19.5-48.6
		c-4.2-10.1-8.7-15-18.2-17.3v-0.4c18.6-3.6,28.7-14.2,28.7-31.5c0-28.5-24.5-34.7-57.7-34.7L1169.2,889.2L1169.2,889.2z
		 M1200.7,912.3h7c19,0,29.4,3,29.4,16.1c0,12.5-9.5,17.5-29.4,17.5h-7V912.3L1200.7,912.3z"/>
	<path class="st0" d="M1353.3,886.9c-41.8,0-67.4,24.7-67.4,68.3c0,43.1,25.8,68.9,65.5,68.9c40.6,0,66.8-25.8,66.8-69.1
		C1418.2,912.7,1392.4,886.9,1353.3,886.9L1353.3,886.9z M1351.6,910.2c20.7,0,34,16.9,34,45.7c0,27.3-13.5,44.8-33.2,44.8
		c-20.1,0-33.6-17.3-33.6-44.8C1318.7,927.7,1331.8,910.2,1351.6,910.2L1351.6,910.2z"/>
	<polygon class="st1" points="1130.8,901.9 1078.6,830.7 1183,830.7 1130.8,901.9 	"/>
	<polygon class="st2" points="1131,909.6 1141.9,894.7 1141.9,1021.6 1110.6,1021.6 1110.6,889.2 1116,889.2 1131,909.6 	"/>
	<path class="st3" d="M591,1080c3.1,0,5.2-1.2,7.1-3.1l-1.6-1.8c-1.4,1.4-3.1,2.4-5.4,2.4c-3.3,0-6.1-2.5-6.4-7.1h13.9
		c0-0.4,0-0.9,0-1.2c0-6.2-3.1-10.7-8.3-10.7c-4.8,0-8.5,4.4-8.5,10.7v0.2C581.8,1075.9,585.9,1080,591,1080L591,1080z
		 M584.7,1068.1c0.3-4.3,2.6-7.2,5.6-7.2c3.4,0,5.2,3.2,5.4,7.2H584.7L584.7,1068.1z"/>
	<path class="st3" d="M603.3,1079.5h2.9v-12.6c0-3.5,2.2-5.9,5.2-5.9c3,0,4.8,2.1,4.8,5.8v12.8h2.9V1066c0-4.6-2.5-7.5-6.8-7.5
		c-3.1,0-5,1.7-6.1,3.8v-3.4h-2.9L603.3,1079.5L603.3,1079.5z"/>
	<path class="st3" d="M632.7,1080c3.1,0,5.2-1.2,7.1-3.1l-1.6-1.8c-1.4,1.4-3.1,2.4-5.4,2.4c-3.3,0-6.1-2.5-6.4-7.1h13.9
		c0-0.4,0-0.9,0-1.2c0-6.2-3.1-10.7-8.3-10.7c-4.8,0-8.5,4.4-8.5,10.7v0.2C623.5,1075.9,627.6,1080,632.7,1080L632.7,1080z
		 M626.4,1068.1c0.3-4.3,2.6-7.2,5.6-7.2c3.4,0,5.2,3.2,5.4,7.2H626.4L626.4,1068.1z"/>
	<path class="st3" d="M644.9,1079.5h2.9v-9.9c0-5.3,3.1-8,7-8h0.2v-3.1c-3.4-0.2-5.9,1.9-7.1,4.8v-4.6h-2.9V1079.5L644.9,1079.5z"/>
	<path class="st3" d="M665.7,1085.6c2.9,0,5.3-0.8,6.9-2.4c1.5-1.5,2.3-3.6,2.3-6.4v-18h-2.9v3.7c-1.4-2.2-3.5-4.1-6.8-4.1
		c-4.2,0-8.2,3.5-8.2,9.8v0.2c0,6.2,3.9,9.7,8.1,9.7c3.3,0,5.4-1.9,6.8-4.3v3c0,4.1-2.4,6.2-6.3,6.2c-2.4,0-4.7-0.8-6.7-2l-1.2,2.3
		C660.2,1084.8,662.9,1085.6,665.7,1085.6L665.7,1085.6z M665.8,1075.5c-3.2,0-5.9-2.7-5.9-7.2v-0.1c0-4.5,2.6-7.2,5.9-7.2
		c3.2,0,6.2,2.7,6.2,7.2v0.1C672,1072.7,669,1075.5,665.8,1075.5L665.8,1075.5z"/>
	<path class="st3" d="M680.8,1054.6h3.2v-3.4h-3.2V1054.6L680.8,1054.6z M680.9,1079.5h2.9v-20.7h-2.9V1079.5L680.9,1079.5z"/>
	<polygon class="st3" points="688.8,1079.5 703.8,1079.5 703.8,1077.1 692.4,1077.1 703.9,1060.7 703.9,1058.8 689.2,1058.8 
		689.2,1061.3 700.2,1061.3 688.8,1077.6 688.8,1079.5 	"/>
	<path class="st3" d="M708.7,1054.6h3.2v-3.4h-3.2V1054.6L708.7,1054.6z M708.8,1079.5h2.9v-20.7h-2.9V1079.5L708.8,1079.5z"/>
	<path class="st3" d="M717.8,1079.5h2.9v-12.6c0-3.5,2.2-5.9,5.2-5.9c3,0,4.8,2.1,4.8,5.8v12.8h2.9V1066c0-4.6-2.5-7.5-6.8-7.5
		c-3.1,0-5,1.7-6.1,3.8v-3.4h-2.9L717.8,1079.5L717.8,1079.5z"/>
	<path class="st3" d="M746.8,1085.6c2.9,0,5.3-0.8,6.9-2.4c1.5-1.5,2.3-3.6,2.3-6.4v-18h-2.9v3.7c-1.4-2.2-3.5-4.1-6.8-4.1
		c-4.2,0-8.2,3.5-8.2,9.8v0.2c0,6.2,3.9,9.7,8.1,9.7c3.3,0,5.4-1.9,6.8-4.3v3c0,4.1-2.4,6.2-6.3,6.2c-2.4,0-4.7-0.8-6.7-2l-1.2,2.3
		C741.4,1084.8,744,1085.6,746.8,1085.6L746.8,1085.6z M746.9,1075.5c-3.2,0-5.9-2.7-5.9-7.2v-0.1c0-4.5,2.6-7.2,5.9-7.2
		c3.2,0,6.2,2.7,6.2,7.2v0.1C753.2,1072.7,750.1,1075.5,746.9,1075.5L746.9,1075.5z"/>
	<path class="st3" d="M777.4,1080c3.1,0,5.1-1.5,6.3-3.5v3h2.8v-13.3c0-2.4-0.7-4.3-2-5.6c-1.4-1.4-3.3-2.1-5.8-2.1
		c-2.5,0-4.6,0.7-6.5,1.7l0.9,2.3c1.4-0.8,3.2-1.4,5.3-1.4c3.3,0,5.3,1.8,5.3,5.1v1.2c-1.5-0.5-3.1-0.8-5.3-0.8
		c-4.6,0-7.6,2.4-7.6,6.7v0.2C770.8,1077.6,773.9,1080,777.4,1080L777.4,1080z M778,1077.6c-2.5,0-4.4-1.6-4.4-4.2v-0.1
		c0-2.6,1.8-4.3,5.1-4.3c2,0,3.7,0.4,5,0.8v2.6C783.7,1075.3,781.2,1077.6,778,1077.6L778,1077.6z"/>
	<path class="st3" d="M792.1,1079.5h2.9v-12.6c0-3.5,2.2-5.9,5.2-5.9c3,0,4.8,2.1,4.8,5.8v12.8h2.9V1066c0-4.6-2.5-7.5-6.8-7.5
		c-3.1,0-5,1.7-6.1,3.8v-3.4h-2.9V1079.5L792.1,1079.5z"/>
	<path class="st3" d="M820.7,1079.9c3.3,0,5.3-2,6.7-4.4v4h2.9v-28.7h-2.9v11.8c-1.4-2.3-3.4-4.3-6.7-4.3c-4.2,0-8.3,3.7-8.3,10.6
		v0.4C812.4,1076.3,816.4,1079.9,820.7,1079.9L820.7,1079.9z M821.3,1077.3c-3.2,0-5.9-3-5.9-8v-0.3c0-5.1,2.6-8,5.9-8
		c3.3,0,6.2,3.1,6.2,8v0.4C827.5,1074.2,824.5,1077.3,821.3,1077.3L821.3,1077.3z"/>
	<path class="st3" d="M852.5,1079.8c1.2,0,2.2-0.3,3.1-0.7v-2.5c-0.8,0.4-1.6,0.6-2.4,0.6c-1.8,0-3-0.8-3-3v-12.9h5.4v-2.5h-5.4v-6
		h-2.9v6h-2.5v2.5h2.5v13.3C847.3,1078.4,849.5,1079.8,852.5,1079.8L852.5,1079.8z"/>
	<path class="st3" d="M860.2,1079.5h2.9v-9.9c0-5.3,3.1-8,7-8h0.2v-3.1c-3.4-0.2-5.9,1.9-7.1,4.8v-4.6h-2.9V1079.5L860.2,1079.5z"/>
	<path class="st3" d="M878.4,1080c3.1,0,5.1-1.5,6.3-3.5v3h2.8v-13.3c0-2.4-0.7-4.3-2-5.6c-1.3-1.4-3.3-2.1-5.8-2.1
		c-2.5,0-4.6,0.7-6.5,1.7l0.9,2.3c1.4-0.8,3.2-1.4,5.3-1.4c3.3,0,5.3,1.8,5.3,5.1v1.2c-1.5-0.5-3.1-0.8-5.3-0.8
		c-4.6,0-7.6,2.4-7.6,6.7v0.2C871.8,1077.6,875,1080,878.4,1080L878.4,1080z M879.1,1077.6c-2.5,0-4.4-1.6-4.4-4.2v-0.1
		c0-2.6,1.8-4.3,5.1-4.3c2,0,3.7,0.4,5,0.8v2.6C884.8,1075.3,882.2,1077.6,879.1,1077.6L879.1,1077.6z"/>
	<path class="st3" d="M893.1,1079.5h2.9v-12.6c0-3.5,2.2-5.9,5.2-5.9c3,0,4.8,2.1,4.8,5.8v12.8h2.9V1066c0-4.6-2.5-7.5-6.8-7.5
		c-3.1,0-5,1.7-6.1,3.8v-3.4h-2.9V1079.5L893.1,1079.5z"/>
	<path class="st3" d="M920.1,1079.9c3.7,0,6.7-2.3,6.7-6v-0.1c0-3.1-2.4-4.6-5.8-6.1c-2.8-1.2-4.6-2.1-4.6-3.8v-0.1
		c0-1.6,1.4-2.9,3.6-2.9c1.8,0,3.6,0.8,5.2,1.9l1.4-2.2c-1.7-1.3-4.2-2.2-6.5-2.2c-3.7,0-6.4,2.3-6.4,5.6v0.1c0,3.2,2.6,4.5,5.9,6
		c2.8,1.2,4.5,2.1,4.5,3.9v0c0,1.9-1.6,3.2-3.9,3.2c-2.1,0-4.1-0.9-6-2.5l-1.5,2.1C914.8,1078.9,917.5,1079.9,920.1,1079.9
		L920.1,1079.9z"/>
	<path class="st3" d="M932.4,1079.5h2.9v-18.2h5.4v-2.5h-5.4v-1.7c0-2.6,1.1-3.9,3.1-3.9c0.8,0,1.5,0.2,2.3,0.4v-2.5
		c-0.8-0.2-1.6-0.4-2.7-0.4c-1.7,0-3.1,0.5-4,1.5c-1,1-1.6,2.7-1.6,4.8v1.9h-2.5v2.5h2.5V1079.5L932.4,1079.5z"/>
	<path class="st3" d="M951.7,1080c5.3,0,9.2-4.6,9.2-10.7v-0.2c0-6-3.9-10.6-9.2-10.6s-9.2,4.6-9.2,10.6v0.3
		C942.5,1075.4,946.4,1080,951.7,1080L951.7,1080z M951.7,1077.4c-3.5,0-6.3-3.5-6.3-8.1v-0.2c0-4.6,2.6-8.1,6.2-8.1
		c3.5,0,6.3,3.5,6.3,8.1v0.2C958,1073.9,955.4,1077.4,951.7,1077.4L951.7,1077.4z"/>
	<path class="st3" d="M965.7,1079.5h2.9v-9.9c0-5.3,3.1-8,7-8h0.2v-3.1c-3.4-0.2-5.9,1.9-7.1,4.8v-4.6h-2.9V1079.5L965.7,1079.5z"/>
	<path class="st3" d="M979.6,1079.5h2.9v-12.6c0-3.5,2.1-5.9,4.9-5.9c2.8,0,4.5,2,4.5,5.7v12.8h2.9v-12.6c0-3.7,2.2-5.9,4.9-5.9
		c2.8,0,4.5,2,4.5,5.8v12.8h2.9V1066c0-4.8-2.6-7.6-6.6-7.6c-3.2,0-5.1,1.7-6.4,3.8c-1-2.3-2.9-3.8-5.7-3.8c-3,0-4.6,1.7-5.8,3.7
		v-3.3h-2.9V1079.5L979.6,1079.5z"/>
	<path class="st3" d="M1012.7,1054.6h3.2v-3.4h-3.2V1054.6L1012.7,1054.6z M1012.9,1079.5h2.9v-20.7h-2.9V1079.5L1012.9,1079.5z"/>
	<path class="st3" d="M1021.8,1079.5h2.9v-12.6c0-3.5,2.2-5.9,5.2-5.9c3,0,4.8,2.1,4.8,5.8v12.8h2.9V1066c0-4.6-2.5-7.5-6.8-7.5
		c-3.1,0-5,1.7-6.1,3.8v-3.4h-2.9V1079.5L1021.8,1079.5z"/>
	<path class="st3" d="M1050.8,1085.6c2.9,0,5.3-0.8,6.9-2.4c1.5-1.5,2.3-3.6,2.3-6.4v-18h-2.9v3.7c-1.4-2.2-3.5-4.1-6.8-4.1
		c-4.2,0-8.2,3.5-8.2,9.8v0.2c0,6.2,3.9,9.7,8.1,9.7c3.3,0,5.4-1.9,6.8-4.3v3c0,4.1-2.4,6.2-6.3,6.2c-2.4,0-4.7-0.8-6.7-2l-1.2,2.3
		C1045.4,1084.8,1048.1,1085.6,1050.8,1085.6L1050.8,1085.6z M1051,1075.5c-3.2,0-5.9-2.7-5.9-7.2v-0.1c0-4.5,2.6-7.2,5.9-7.2
		c3.2,0,6.2,2.7,6.2,7.2v0.1C1057.2,1072.7,1054.1,1075.5,1051,1075.5L1051,1075.5z"/>
	<path class="st3" d="M1076.2,1085.5h2.9v-9.8c1.4,2.3,3.4,4.3,6.7,4.3c4.2,0,8.3-3.7,8.3-10.6v-0.4c0-6.9-4.1-10.5-8.3-10.5
		c-3.3,0-5.3,2-6.7,4.4v-4h-2.9V1085.5L1076.2,1085.5z M1085.2,1077.3c-3.3,0-6.3-3.1-6.3-7.9v-0.4c0-4.8,3-8,6.3-8
		c3.2,0,5.9,3,5.9,8v0.3C1091.1,1074.4,1088.4,1077.3,1085.2,1077.3L1085.2,1077.3z"/>
	<path class="st3" d="M1106.9,1080c3.1,0,5.2-1.2,7.1-3.1l-1.6-1.8c-1.4,1.4-3.1,2.4-5.4,2.4c-3.3,0-6.1-2.5-6.4-7.1h13.9
		c0-0.4,0-0.9,0-1.2c0-6.2-3.1-10.7-8.3-10.7c-4.8,0-8.5,4.4-8.5,10.7v0.2C1097.7,1075.9,1101.9,1080,1106.9,1080L1106.9,1080z
		 M1100.6,1068.1c0.3-4.3,2.6-7.2,5.6-7.2c3.4,0,5.2,3.2,5.4,7.2H1100.6L1100.6,1068.1z"/>
	<path class="st3" d="M1127.2,1080c5.3,0,9.2-4.6,9.2-10.7v-0.2c0-6-3.9-10.6-9.2-10.6c-5.3,0-9.2,4.6-9.2,10.6v0.3
		C1118.1,1075.4,1121.9,1080,1127.2,1080L1127.2,1080z M1127.3,1077.4c-3.5,0-6.3-3.5-6.3-8.1v-0.2c0-4.6,2.6-8.1,6.2-8.1
		c3.5,0,6.3,3.5,6.3,8.1v0.2C1133.6,1073.9,1130.9,1077.4,1127.3,1077.4L1127.3,1077.4z"/>
	<path class="st3" d="M1141.2,1085.5h2.9v-9.8c1.4,2.3,3.4,4.3,6.7,4.3c4.2,0,8.3-3.7,8.3-10.6v-0.4c0-6.9-4.1-10.5-8.3-10.5
		c-3.3,0-5.3,2-6.7,4.4v-4h-2.9V1085.5L1141.2,1085.5z M1150.3,1077.3c-3.3,0-6.3-3.1-6.3-7.9v-0.4c0-4.8,3-8,6.3-8
		c3.2,0,5.9,3,5.9,8v0.3C1156.1,1074.4,1153.5,1077.3,1150.3,1077.3L1150.3,1077.3z"/>
	<polygon class="st3" points="1164.2,1079.5 1167,1079.5 1167,1050.8 1164.2,1050.8 1164.2,1079.5 	"/>
	<path class="st3" d="M1181.2,1080c3.1,0,5.2-1.2,7.1-3.1l-1.6-1.8c-1.4,1.4-3.1,2.4-5.4,2.4c-3.3,0-6.1-2.5-6.4-7.1h13.9
		c0-0.4,0-0.9,0-1.2c0-6.2-3.1-10.7-8.3-10.7c-4.8,0-8.5,4.4-8.5,10.7v0.2C1172,1075.9,1176.2,1080,1181.2,1080L1181.2,1080z
		 M1174.9,1068.1c0.3-4.3,2.6-7.2,5.6-7.2c3.4,0,5.2,3.2,5.4,7.2H1174.9L1174.9,1068.1z"/>
	<path class="st3" d="M1219.9,1080l2.3-1.6l-4.2-4.8c1.3-2,2.3-4.4,3.3-7.1l-2.4-1c-0.8,2.3-1.7,4.3-2.7,6l-5.6-6.8
		c3.6-1.7,5.9-3.9,5.9-7.3v-0.1c0-3.3-2.5-6-6.2-6c-4,0-6.6,2.9-6.6,6.2v0.1c0,2.1,0.8,3.9,2.7,6.4c-3.9,1.9-6,4.7-6,8.3v0.1
		c0,4.4,3.3,7.5,7.9,7.5c3.3,0,5.8-1.5,8-4.1L1219.9,1080L1219.9,1080z M1209,1062.9c-1.9-2.4-2.6-3.7-2.6-5.3v-0.1
		c0-2.1,1.6-3.8,3.8-3.8c2,0,3.5,1.6,3.5,3.7v0C1213.7,1059.8,1212.2,1061.5,1209,1062.9L1209,1062.9z M1208.5,1077.3
		c-3,0-5.1-2.2-5.1-5.1v-0.1c0-2.3,1.4-4.6,4.6-6.2l6.6,7.9C1212.8,1076,1210.8,1077.3,1208.5,1077.3L1208.5,1077.3z"/>
	<path class="st3" d="M1240.4,1080c3.1,0,5.1-1.4,6.7-3.1l-1.7-1.9c-1.3,1.4-2.8,2.4-4.8,2.4c-3.5,0-6.4-3.1-6.4-8v-0.2
		c0-4.8,2.8-8.1,6.2-8.1c2.1,0,3.6,1.1,4.8,2.3l1.7-2.1c-1.6-1.6-3.6-2.8-6.5-2.8c-5.2,0-9.2,4.4-9.2,10.7v0.3
		C1231.3,1075.7,1235.2,1080,1240.4,1080L1240.4,1080z"/>
	<path class="st3" d="M1258.8,1080c5.3,0,9.2-4.6,9.2-10.7v-0.2c0-6-3.9-10.6-9.2-10.6c-5.3,0-9.2,4.6-9.2,10.6v0.3
		C1249.6,1075.4,1253.5,1080,1258.8,1080L1258.8,1080z M1258.9,1077.4c-3.5,0-6.3-3.5-6.3-8.1v-0.2c0-4.6,2.6-8.1,6.2-8.1
		c3.5,0,6.3,3.5,6.3,8.1v0.2C1265.1,1073.9,1262.5,1077.4,1258.9,1077.4L1258.9,1077.4z"/>
	<path class="st3" d="M1272.8,1079.5h2.9v-12.6c0-3.5,2.1-5.9,4.9-5.9c2.8,0,4.5,2,4.5,5.7v12.8h2.9v-12.6c0-3.7,2.2-5.9,4.9-5.9
		c2.8,0,4.5,2,4.5,5.8v12.8h2.9V1066c0-4.8-2.6-7.6-6.6-7.6c-3.2,0-5.1,1.7-6.4,3.8c-1-2.3-2.9-3.8-5.7-3.8c-3,0-4.6,1.7-5.8,3.7
		v-3.3h-2.9V1079.5L1272.8,1079.5z"/>
	<path class="st3" d="M1305.8,1085.5h2.9v-9.8c1.4,2.3,3.4,4.3,6.7,4.3c4.2,0,8.3-3.7,8.3-10.6v-0.4c0-6.9-4.1-10.5-8.3-10.5
		c-3.3,0-5.3,2-6.7,4.4v-4h-2.9V1085.5L1305.8,1085.5z M1314.8,1077.3c-3.3,0-6.3-3.1-6.3-7.9v-0.4c0-4.8,3-8,6.3-8
		c3.2,0,5.9,3,5.9,8v0.3C1320.7,1074.4,1318.1,1077.3,1314.8,1077.3L1314.8,1077.3z"/>
	<path class="st3" d="M1333.8,1080c3.1,0,5.1-1.5,6.3-3.5v3h2.8v-13.3c0-2.4-0.7-4.3-2-5.6c-1.4-1.4-3.3-2.1-5.8-2.1
		c-2.5,0-4.6,0.7-6.5,1.7l0.9,2.3c1.4-0.8,3.2-1.4,5.3-1.4c3.3,0,5.3,1.8,5.3,5.1v1.2c-1.6-0.5-3.1-0.8-5.3-0.8
		c-4.6,0-7.6,2.4-7.6,6.7v0.2C1327.1,1077.6,1330.3,1080,1333.8,1080L1333.8,1080z M1334.4,1077.6c-2.5,0-4.4-1.6-4.4-4.2v-0.1
		c0-2.6,1.8-4.3,5.1-4.3c2,0,3.7,0.4,5,0.8v2.6C1340.1,1075.3,1337.6,1077.6,1334.4,1077.6L1334.4,1077.6z"/>
	<path class="st3" d="M1348.5,1079.5h2.9v-12.6c0-3.5,2.2-5.9,5.2-5.9c3,0,4.8,2.1,4.8,5.8v12.8h2.9V1066c0-4.6-2.5-7.5-6.8-7.5
		c-3.1,0-5,1.7-6.1,3.8v-3.4h-2.9V1079.5L1348.5,1079.5z"/>
	<path class="st3" d="M1369.9,1054.6h3.2v-3.4h-3.2V1054.6L1369.9,1054.6z M1370.1,1079.5h2.9v-20.7h-2.9V1079.5L1370.1,1079.5z"/>
	<path class="st3" d="M1387.1,1080c3.1,0,5.2-1.2,7.1-3.1l-1.6-1.8c-1.4,1.4-3.1,2.4-5.4,2.4c-3.3,0-6.1-2.5-6.4-7.1h13.9
		c0-0.4,0-0.9,0-1.2c0-6.2-3.1-10.7-8.3-10.7c-4.8,0-8.5,4.4-8.5,10.7v0.2C1377.9,1075.9,1382.1,1080,1387.1,1080L1387.1,1080z
		 M1380.8,1068.1c0.3-4.3,2.6-7.2,5.6-7.2c3.4,0,5.2,3.2,5.4,7.2H1380.8L1380.8,1068.1z"/>
	<path class="st3" d="M1405,1079.9c3.7,0,6.7-2.3,6.7-6v-0.1c0-3.1-2.4-4.6-5.8-6.1c-2.8-1.2-4.6-2.1-4.6-3.8v-0.1
		c0-1.6,1.4-2.9,3.6-2.9c1.8,0,3.6,0.8,5.2,1.9l1.4-2.2c-1.7-1.3-4.2-2.2-6.5-2.2c-3.7,0-6.4,2.3-6.4,5.6v0.1c0,3.2,2.6,4.5,5.9,6
		c2.8,1.2,4.5,2.1,4.5,3.9v0c0,1.9-1.6,3.2-3.9,3.2c-2.1,0-4.1-0.9-6-2.5l-1.5,2.1C1399.7,1078.9,1402.4,1079.9,1405,1079.9
		L1405,1079.9z"/>
</g>
</svg>
