<?xml version="1.0" encoding="utf-8"?>
<!-- Generator: Adobe Illustrator 21.0.2, SVG Export Plug-In . SVG Version: 6.00 Build 0)  -->
<svg version="1.1" id="Ebene_1" xmlns="http://www.w3.org/2000/svg" xmlns:xlink="http://www.w3.org/1999/xlink" x="0px" y="0px"
	 viewBox="0 0 2000 2000" style="enable-background:new 0 0 2000 2000;" xml:space="preserve">
<style type="text/css">
	.st0{fill:#FDFDFD;}
	.st1{fill:#011849;}
	.st2{fill:#099830;}
</style>
<g>
	<g>
		<path class="st0" d="M1000.2,1074.8c-79.6,0-159.3,0-238.9,0c-0.9,0-1.1-0.2-1.1-1.1c0-48.8,0-97.6,0-146.4c0-0.9,0.2-1.1,1.1-1.1
			c159.3,0,318.6,0,477.8,0c0.9,0,1.1,0.2,1.1,1.1c0,48.8,0,97.6,0,146.4c0,0.9-0.2,1.1-1.1,1.1
			C1159.5,1074.8,1079.9,1074.8,1000.2,1074.8z M1199.8,1038.1c6,0,11-0.7,15.8-2.5c7.6-2.8,13.6-7.5,17.6-14.6
			c2.8-4.9,4.3-10.2,5-15.7c1-8.9,0.3-17.6-3.5-25.8c-3.7-8.1-9.8-14-18.3-17c-11.3-4-22.6-3.5-33.7,1.2c-6.1,2.6-10.8,7-14.2,12.8
			c-2.8,4.8-4.3,10.1-4.9,15.6c-1,9-0.3,17.7,3.4,26.1c2.7,6.1,7,11,12.8,14.5C1186.2,1036.7,1193.3,1038.1,1199.8,1038.1z
			 M801.6,997.8c0.4-0.1,0.8-0.2,1.1-0.3c8-2,13.6-7,14.3-15.4c0.6-7.7-2.6-13.9-9.4-17.3c-5.3-2.7-11-3.4-16.8-3.5
			c-9.2-0.1-18.5,0-27.7-0.1c-0.9,0-1,0.3-1,1.1c0,24.4,0,48.9,0,73.3c0,0.8,0.1,1.1,1,1.1c9.2,0,18.4,0,27.6-0.1
			c5.5-0.1,11-0.9,16.1-3.1c6.3-2.6,10.8-6.8,12-13.8c1.4-8.2-1.5-15.8-9.7-19.6C806.8,999,804.3,998.4,801.6,997.8z M983.2,998.9
			c0,12.2,0,24.5,0,36.7c0,0.9,0.2,1.1,1.1,1.1c5.2,0,10.4,0,15.6,0c1,0,1.3-0.2,1.3-1.3c-0.1-9.9,0-19.8-0.1-29.6
			c0-0.9,0.2-1.1,1.1-1.1c8.7,0,17.4,0,26,0c1.1,0,1.4,0.3,1.4,1.4c0,9.8,0,19.7,0,29.5c0,0.9,0.2,1.1,1.1,1.1c5.3-0.1,10.6,0,16,0
			c0.8,0,0.9-0.2,0.9-0.9c0-24.5,0-49,0-73.5c0-0.8-0.3-1-1-1c-5.2,0-10.5,0-15.7,0c-1,0-1.3,0.2-1.2,1.2c0,9,0,18,0,27
			c0,1-0.3,1.2-1.2,1.2c-8.7,0-17.4,0-26.2,0c-1,0-1.2-0.3-1.2-1.2c0-9,0-18.1,0-27.1c0-0.9-0.2-1.1-1.1-1.1c-5.2,0-10.4,0.1-15.6,0
			c-1,0-1.3,0.2-1.3,1.3C983.2,974.6,983.2,986.7,983.2,998.9z M1137.1,999.2c0-0.1,0-0.1,0-0.2c0.7-0.2,1.3-0.3,2-0.5
			c3.5-0.9,6.8-2.3,9.3-4.8c5.3-5.3,5.8-11.8,4.1-18.6c-1.5-5.9-5.8-9.2-11.3-11.1c-6.1-2.2-12.4-2.6-18.8-2.6
			c-8.2-0.1-16.5,0-24.7-0.1c-0.9,0-1.1,0.3-1.1,1.1c0,24.4,0,48.8,0,73.2c0,1,0.3,1.1,1.2,1.1c5.2,0,10.3-0.1,15.5,0
			c1.1,0,1.3-0.3,1.3-1.3c0-9.2,0-18.5,0-27.7c0-0.9,0.2-1.2,1.1-1.2c1.8,0.1,3.7,0,5.5,0.1s3.5,0.5,5,1.3c2.6,1.4,4,3.8,5.1,6.5
			c2.8,6.9,5.1,13.9,7.7,20.9c0.4,1,0.8,1.4,1.9,1.4c5.4-0.1,10.8,0,16.2,0c0.4,0,0.9,0,1.4,0c-0.5-1.4-1-2.6-1.5-3.9
			c-3.4-8.4-6.8-16.9-10.3-25.3c-1.5-3.5-3.8-6.4-7.6-7.7C1138.4,999.6,1137.7,999.4,1137.1,999.2z M832.1,998.9
			c0,12.2,0,24.4,0,36.6c0,0.7,0,1.2,1,1.2c15.7,0,31.4,0,47,0c0.9,0,1-0.3,1-1.1c0-3.8-0.1-7.5,0-11.3c0-1.1-0.3-1.3-1.4-1.3
			c-9.7,0-19.4,0-29,0c-1,0-1.2-0.3-1.2-1.2c0-5.2,0.1-10.4,0-15.6c0-1.1,0.3-1.3,1.3-1.3c8.6,0,17.3,0,25.9,0c1,0,1.4-0.2,1.4-1.3
			c-0.1-3.6-0.1-7.2,0-10.8c0-1-0.2-1.3-1.3-1.3c-8.6,0.1-17.3,0-25.9,0c-1,0-1.4-0.2-1.4-1.3c0.1-4.8,0.1-9.5,0-14.3
			c0-1.1,0.3-1.3,1.3-1.3c9.4,0,18.8,0,28.2,0c0.9,0,1.3-0.1,1.3-1.2c-0.1-3.7-0.1-7.4,0-11.2c0-1-0.3-1.2-1.2-1.2
			c-15.3,0-30.6,0-45.8,0c-1.1,0-1.3,0.3-1.3,1.3C832.1,974.7,832.1,986.8,832.1,998.9z M949.3,960c-5.8-0.1-11.5,0.7-16.8,3
			c-9.7,4.2-14.7,13.7-12.6,24c1.2,5.7,4.7,9.7,9.4,12.7c4,2.6,8.5,4.1,12.9,5.9c2.6,1.1,5.2,2.2,7.5,3.9c5,3.7,4.5,10.4-1.1,13.2
			c-2.8,1.4-5.7,1.7-8.7,1.6c-6.1-0.1-11.9-1.5-17.4-4c-0.7-0.3-1.1-0.5-1.2,0.6c-0.4,4.3-0.8,8.6-1.3,12.9c-0.1,0.9,0.2,1.1,1,1.4
			c5.5,1.6,11.1,2.5,16.9,2.8c6.9,0.3,13.7-0.2,20.2-3.2c10.5-4.8,14.5-14.8,12.8-25.2c-1-6-4.6-10.2-9.6-13.4
			c-4.2-2.7-8.9-4.3-13.5-6.1c-2.5-1-5-2.1-7.2-3.7c-4-2.9-4-8,0.1-10.9c2.3-1.6,4.9-2.1,7.6-2.2c5.9-0.3,11.6,0.8,17.1,2.8
			c0.8,0.3,1.2,0.3,1.2-0.7c0.3-3.9,0.6-7.9,1-11.8c0.1-0.9-0.3-1.1-1-1.3C960.9,960.6,955.1,960,949.3,960z M1074.8,972.8
			c-2.5-3.4-5-6.7-7.3-10c-0.9-1.2-1.8-1.7-3.2-1.6c-0.9,0.1-1.1,0.3-1.1,1.2c0,24.4,0,48.8,0,73.2c0,1,0.4,1.1,1.2,1.1
			c5.2,0,10.3,0,15.5,0c1,0,1.2-0.3,1.2-1.3c0-23.2,0-46.5,0-69.7c0-0.3,0.2-0.7-0.2-1.1C1078.8,967.4,1076.9,970.1,1074.8,972.8z
			 M1074.7,968.5c10-13.6,19.8-27,29.7-40.4c-19.9,0-39.6,0-59.5,0C1054.9,941.5,1064.8,954.9,1074.7,968.5z M1123.4,1065
			c-1.1-1.3-2.1-2.5-3.1-3.8c0.8-0.5,1.5-0.9,2.1-1.4c1.3-1.3,1.6-3.1,0.8-4.6c-0.8-1.4-2.7-2-4.4-1.4c-1.7,0.6-2.6,2.1-2.3,4
			c0.1,0.9,0.5,1.6,1,2.3c0.5,0.6,0.4,0.9-0.2,1.2c-1.3,0.7-2.3,1.8-2.5,3.3c-0.4,1.9,0.3,3.6,1.7,4.5c1.9,1.1,3.7,1,5.5-0.1
			c0.6-0.4,1.2-1.3,1.7-1.2c0.6,0.2,1,1,1.5,1.6c0.3,0.3,0.5,0.6,1,0.3c0.7-0.4,0.9-0.8,0.2-1.4c-1.4-1.2-2-2.5-0.6-4.1
			c0.3-0.4,0.3-0.9,0.6-1.3c0.3-0.6,0-0.7-0.4-0.9c-0.5-0.2-0.8-0.2-1,0.4C1124.4,1063.2,1124,1064.1,1123.4,1065z M1157.4,1059.3
			c0-0.2-0.1-0.3-0.1-0.5c0-0.6,0-1.1-0.8-1.1c-0.9,0-0.8,0.5-0.8,1.1c0,3.3,0,6.6,0,9.8c0,0.5-0.1,1,0.8,1c0.7,0,0.9-0.2,0.9-0.9
			c0-2.4-0.2-4.8,0.1-7.2c0.2-1.5,1.3-2.5,2.6-2.5c1.4,0,2.2,0.7,2.4,2.4c0.1,0.6,0.1,1.1,0.1,1.7c0,1.9,0,3.8,0,5.6
			c0,0.6,0.1,0.8,0.8,0.8c0.8,0,0.9-0.4,0.9-1c0-2.3,0-4.6,0.1-6.9c0.1-1.6,1.2-2.5,2.7-2.6c1.4,0,2.2,0.7,2.5,2.4
			c0.1,0.5,0.1,1.1,0.1,1.7c0,1.9,0,3.8,0,5.8c0,0.5,0.1,0.8,0.7,0.7c0.4-0.1,1,0.2,1-0.5c-0.1-2.9,0.3-5.8-0.2-8.7
			c-0.3-1.9-1.9-2.9-3.8-2.8c-1.5,0.1-2.5,0.9-3.4,2C1161.9,1057.1,1159.9,1057,1157.4,1059.3z M990.2,1059.5c0-0.3-0.1-0.4-0.1-0.5
			c0-0.5,0.2-1.2-0.8-1.2s-0.9,0.5-0.9,1.2c0,3.2,0,6.5,0,9.7c0,0.4-0.2,1,0.6,1c0.7,0,1.1-0.1,1.1-0.9c0-2.4-0.3-4.9,0.2-7.3
			c0.3-1.5,1.4-2.4,2.7-2.3c1.4,0.1,2.2,0.9,2.3,2.6c0.1,2.3,0.1,4.6,0.1,6.8c0,0.6-0.1,1.2,0.9,1.2c0.9,0,0.8-0.5,0.8-1.1
			c0-2,0-3.9,0-5.9c0-0.6,0.1-1.3,0.3-1.9c0.5-1.2,1.5-1.8,2.9-1.7c1.2,0.1,1.9,0.9,2.1,2.3c0.1,0.6,0.1,1.2,0.1,1.8
			c0,1.9,0,3.8,0,5.6c0,0.7,0.3,0.8,0.9,0.8c0.5,0,0.8-0.1,0.8-0.7c0-2.6,0.1-5.2-0.1-7.8c-0.1-2.4-1.9-3.8-4.3-3.5
			c-1.3,0.2-2.2,1-3,1.9C994.8,1057,992.6,1057,990.2,1059.5z M859.4,1066.6c0,0.8,0,1.3,0,1.9c-0.1,1.9-1.2,3.1-3.2,3.2
			c-1.2,0.1-2.4-0.2-3.5-0.8c-0.5-0.3-0.8-0.3-1.1,0.3c-0.4,0.7,0,0.8,0.5,1.1c1.4,0.6,2.8,1,4.3,0.8c2.9-0.2,4.6-1.8,4.6-4.8
			c0.1-3.2,0-6.5,0-9.7c0-0.7-0.3-0.8-0.9-0.8c-0.6,0-0.9,0.1-0.8,0.8c0,0.3,0.1,0.7-0.1,1c-3-3.5-6.8-1.8-7.9,1
			c-0.3,0.8-0.4,1.6-0.5,2.5c-0.1,2.5,1.1,4.7,3.1,5.5C855.8,1069.3,857.5,1068.7,859.4,1066.6z M1032.7,1059.9
			c-0.3-0.4-0.4-0.5-0.6-0.7c-2.4-2.5-6-1.9-7.4,1.3c-0.7,1.5-0.7,3.1-0.3,4.7c0.5,1.8,1.5,3.1,3.3,3.6s3.3-0.2,4.5-1.6
			c0.1-0.1,0.2-0.3,0.4-0.1c0,0.4,0,0.9,0,1.4c-0.1,2.1-1.3,3.3-3.4,3.3c-1.1,0-2.2-0.2-3.2-0.8c-0.6-0.3-0.8-0.2-1.1,0.3
			c-0.3,0.6-0.1,0.8,0.4,1c1.7,0.8,3.6,1.2,5.5,0.7c2-0.5,3.4-1.8,3.5-3.9c0.1-3.5,0-7,0.1-10.5c0-0.6-0.3-0.7-0.8-0.6
			c-0.4,0-0.9-0.1-0.9,0.6C1032.7,1058.8,1032.7,1059.2,1032.7,1059.9z M813,1059.6c-1.9-1.8-3.3-2.3-5-1.8c-2,0.6-3.3,2.6-3.4,5.3
			c0,2.7,1.1,4.8,3.2,5.5c2.1,0.7,3.8-0.1,5.3-2c0,0.8,0,1.3,0,1.8c-0.1,2.1-1.3,3.3-3.4,3.3c-1.1,0-2.2-0.2-3.2-0.8
			c-0.5-0.3-0.8-0.3-1.1,0.3c-0.4,0.7,0,0.8,0.5,1c1.7,0.8,3.5,1.1,5.4,0.7c2.1-0.5,3.4-1.9,3.5-4c0.1-3.5,0-7,0.1-10.4
			c0-0.5-0.2-0.6-0.6-0.7C812.6,1057.7,813.3,1058.9,813,1059.6z M901.7,1059.8c-3.3-3.9-7.2-1.8-8.1,1.2c-0.6,2.1-0.6,4.2,0.3,6.2
			c0.9,2,2.9,2.9,4.9,2.5c1.1-0.3,1.9-1.1,2.6-1.9c0.3,0.3,0.2,0.6,0.2,0.8c0,0.6-0.1,1.1,0.8,1.1c0.9,0,0.8-0.5,0.8-1.1
			c0-4.8,0-9.5,0-14.3c0-0.6,0.1-1.1-0.8-1.1c-0.9,0-0.9,0.4-0.8,1.1C901.7,1056.1,901.7,1057.8,901.7,1059.8z M1045.2,1067.7
			c0.3,0.2,0.4,0.3,0.4,0.4c1.9,2.7,6.1,2.4,7.5-1.3c0.9-2.2,0.8-4.4-0.2-6.5c-0.9-2-2.9-2.9-4.9-2.5c-1.2,0.2-1.9,1.2-2.8,2
			c0-0.5-0.1-0.8,0-1.1c0.1-0.6-0.1-0.8-0.8-0.9c-0.7,0-0.9,0.3-0.9,0.9c0,4.5,0,9,0,13.4c0,0.6,0.1,0.9,0.8,0.9
			c0.8,0,0.8-0.4,0.8-1C1045.2,1070.8,1045.2,1069.4,1045.2,1067.7z M1082.3,1060.1c0-0.6,0-0.9,0-1.2c0-0.5,0.2-1.1-0.8-1.1
			c-0.9,0-0.9,0.5-0.9,1.1c0,4.4,0,8.8,0,13.2c0,0.7,0.1,1,0.9,1s0.8-0.4,0.8-1c0-1.4,0-2.9,0-4.6c1.3,1.9,2.8,2.7,4.7,2.2
			c2-0.4,3-1.8,3.5-3.7c0.4-1.4,0.4-2.9,0.1-4.3c-0.4-1.9-1.5-3.5-3.5-4C1085.1,1057.3,1083.6,1058.2,1082.3,1060.1z M1176.2,1067.5
			c1.3,1.9,2.8,2.7,4.7,2.2c2-0.4,3-1.8,3.5-3.7c0.4-1.7,0.4-3.3-0.1-5c-0.8-2.5-2.9-3.8-5.2-3.3c-1.2,0.3-2,1.1-2.9,2.2
			c0-0.6,0-0.9,0-1.2c0-0.6,0-1-0.8-1s-0.9,0.3-0.9,1c0,4.5,0,9,0,13.4c0,0.7,0.3,0.9,0.9,0.9c0.7,0,0.8-0.3,0.8-0.9
			C1176.1,1070.8,1176.2,1069.3,1176.2,1067.5z M1221.2,1064.4c0.4,0,0.9,0,1.3,0c3,0,3.3-0.4,2.4-3.3c-0.1-0.2-0.2-0.5-0.3-0.7
			c-0.7-1.6-1.9-2.6-3.7-2.8c-1.8-0.1-3.2,0.6-4.1,2.1c-1.2,1.8-1.3,3.8-0.9,5.9c0.9,3.9,5.1,5.5,8.2,3.2c0.3-0.2,1.1-0.4,0.5-1.1
			c-0.5-0.7-0.8-0.3-1.3,0c-2.3,1.6-5.1,0.5-5.8-2.1c-0.2-0.7-0.2-1.2,0.8-1.1C1219.3,1064.5,1220.2,1064.4,1221.2,1064.4z
			 M1103.8,1064.4c0.4,0,0.7,0.1,1.1,0c1-0.2,2.3,0.7,2.8-0.5c0.4-0.9,0-2.1-0.4-3.1c-0.1-0.3-0.2-0.5-0.3-0.8
			c-1.6-3-5.6-3.2-7.5-0.4c-1.5,2.2-1.6,4.7-0.6,7.1c1.3,3.2,5.1,4.2,7.9,2.1c0.3-0.2,1-0.3,0.5-1.1c-0.4-0.6-0.7-0.6-1.3-0.1
			c-2.4,1.7-5.4,0.5-5.9-2.4c-0.1-0.6,0-0.9,0.7-0.9C1101.7,1064.5,1102.8,1064.4,1103.8,1064.4z M934.4,1062.8
			c-1.6-0.3-3-0.6-4.6-0.2c-1.8,0.5-2.9,1.9-2.8,3.8c0.1,1.8,1.3,3.1,3.1,3.4c1.7,0.3,3.1-0.4,4.3-1.7c0,0.2,0,0.3,0,0.4
			c0,0.6-0.2,1.2,0.8,1.2s0.8-0.6,0.8-1.2c0-2,0-4,0-6c0-3.5-1.7-5-5.2-4.8c-0.8,0.1-1.6,0.3-2.3,0.6c-0.6,0.2-0.7,1-0.2,1.4
			c0.4,0.3,0.7-0.1,1.1-0.2C932.5,1058.5,934.5,1059.7,934.4,1062.8z M767.2,1064.4c0.4,0,0.9,0.1,1.3,0c0.9-0.2,2.2,0.7,2.7-0.5
			c0.4-0.9,0-2-0.4-3c-0.1-0.3-0.2-0.5-0.3-0.8c-1.6-3.1-5.7-3.3-7.6-0.5c-1.5,2.2-1.6,4.7-0.6,7.1c1.3,3.2,5.2,4.2,7.9,2.1
			c0.3-0.2,1-0.4,0.5-1.1s-0.8-0.5-1.3-0.1c-2.4,1.7-5.3,0.5-5.9-2.4c-0.1-0.7,0.1-0.8,0.7-0.8
			C765.2,1064.5,766.2,1064.4,767.2,1064.4z M791.1,1064.4c1.1,0,2.2,0,3.2,0c0.5,0,0.7-0.2,0.7-0.7c0-1.3-0.2-2.5-0.8-3.6
			c-1.6-3.1-5.7-3.4-7.6-0.5c-1.5,2.2-1.6,4.7-0.6,7.1c1.3,3.1,5.1,4.1,7.8,2.1c0.3-0.2,1.1-0.4,0.5-1.2c-0.5-0.7-0.8-0.3-1.3,0
			c-2.4,1.7-5.3,0.4-5.8-2.5c-0.1-0.6,0-0.8,0.6-0.8C789,1064.5,790.1,1064.4,791.1,1064.4z M876.9,1068c0,0.5,0,0.8,0,1
			c-0.1,0.6,0.3,0.6,0.8,0.6s0.9,0,0.9-0.6c-0.1-2.6,0.2-5.3-0.1-7.9c-0.2-1.9-1.6-3.2-3.5-3.4c-1.3-0.1-2.6,0.1-3.9,0.6
			c-0.5,0.2-0.7,0.4-0.5,1c0.2,0.5,0.4,0.7,1,0.4c0.5-0.2,1.1-0.4,1.6-0.5c2.5-0.4,3.9,0.9,3.7,3.5c-1.5-0.3-3-0.6-4.6-0.2
			c-1.7,0.5-2.8,1.9-2.7,3.8c0.1,1.8,1.2,3.2,3,3.5C874.2,1070.1,875.6,1069.5,876.9,1068z M1061.5,1064.4c0.4,0,0.7,0.1,1.1,0
			c1-0.3,2.3,0.7,2.8-0.5c0.4-0.9-0.1-2.1-0.4-3.1c-0.1-0.3-0.3-0.6-0.4-0.9c-1.5-2.6-4.9-3-7-0.8c-1.6,1.7-1.9,3.8-1.6,6
			c0.6,4.3,5.2,6.3,8.4,3.7c0.3-0.3,0.9-0.5,0.4-1.1c-0.5-0.5-0.7-0.4-1.2,0c-2.4,1.7-5,0.7-5.8-2.1c-0.2-0.8-0.2-1.2,0.8-1.1
			C1059.5,1064.5,1060.5,1064.4,1061.5,1064.4z M1194,1068.1c0.1,0.4,0.1,0.5,0.1,0.7c-0.1,0.7,0.2,0.9,0.9,0.9
			c0.8,0,0.7-0.4,0.7-0.9c0-2.4,0-4.9-0.1-7.3c-0.1-2-1.4-3.4-3.4-3.7c-1.4-0.2-2.7,0-4,0.6c-0.6,0.2-0.6,0.5-0.4,1
			c0.2,0.6,0.5,0.6,1,0.4s1-0.4,1.5-0.5c2.2-0.4,3.6,0.6,3.8,2.7c0.1,0.7-0.1,0.8-0.8,0.7c-1.2-0.3-2.5-0.4-3.8-0.1
			c-1.9,0.5-2.9,1.9-2.7,3.9c0.1,1.7,1.3,3,3,3.3C1191.4,1070.1,1192.7,1069.6,1194,1068.1z M1067.5,1063.8c0,3.1,1.8,5.6,4.4,6
			c3.1,0.5,5.5-1.6,6.1-5c0.5-3.5-1.5-6.7-4.4-7.1C1070.1,1057.3,1067.5,1059.9,1067.5,1063.8z M967.4,1063.8c0,1.1,0.2,2.2,0.8,3.2
			c1.6,3.1,5.6,3.8,8,1.3c1.8-1.8,2.3-5.2,1-7.7c-0.8-1.6-2-2.7-3.8-2.9C970,1057.3,967.3,1060,967.4,1063.8z M1152.9,1063.6
			c0-0.2,0-0.6-0.1-1c-0.3-2.5-2.2-4.5-4.4-4.8c-2.5-0.3-4.6,1-5.5,3.4c-0.7,2-0.7,4,0.3,5.9c1.6,3.2,5.6,3.8,8,1.2
			C1152.5,1067.1,1153,1065.5,1152.9,1063.6z M1014.4,1059.3c-0.1-0.2-0.1-0.3-0.2-0.4c0-0.6,0.1-1.2-0.9-1.1
			c-0.9,0-0.7,0.6-0.7,1.1c0,3.2,0,6.4,0,9.6c0,0.6-0.1,1.2,0.8,1.2c1.1,0,0.8-0.7,0.8-1.2c0-1.8,0-3.6,0-5.4c0-0.5,0-1,0.1-1.5
			c0.3-1.5,1.4-2.4,2.8-2.4c1.6,0,2.4,0.8,2.6,2.5c0.1,0.5,0.1,1,0.1,1.6c0,1.9,0,3.8,0,5.7c0,0.6,0.3,0.7,0.8,0.7
			c0.4,0,0.9,0.1,0.9-0.6c0-2.6,0.1-5.2-0.1-7.8c-0.2-2.7-2.2-4-4.8-3.5C1015.8,1058,1015.1,1058.7,1014.4,1059.3z M840.9,1059.6
			c0-0.5,0-0.7,0-0.9c0.1-0.6,0-1-0.8-1s-0.9,0.4-0.9,1c0,3.3,0,6.6,0,9.8c0,0.6,0,1,0.9,1s0.8-0.5,0.8-1.1c0-1.8,0-3.6,0-5.4
			c0-0.7,0-1.4,0.2-2c0.5-1.4,1.6-2.2,3-2.1s2.1,0.8,2.4,2.4c0.1,0.5,0.1,1.1,0.1,1.7c0,1.9,0,3.8,0,5.8c0,0.6,0.3,0.7,0.8,0.7
			s0.9,0,0.9-0.7c-0.1-2.6,0.2-5.3-0.1-7.9s-2.1-3.8-4.7-3.4C842.5,1058,841.7,1058.6,840.9,1059.6z M775.6,1059.7
			c0-0.5,0-0.7,0-0.9c0-0.6,0-1-0.8-1s-0.9,0.3-0.9,1c0,3.4,0,6.7,0,10.1c0,0.7,0.3,0.8,0.8,0.8c0.6,0,0.9-0.1,0.8-0.8
			c0-1.8,0-3.6,0-5.4c0-0.8-0.1-1.7,0.3-2.5c0.5-1.3,1.6-2,3-1.8c1.4,0.1,2,0.8,2.3,2.3c0.1,0.6,0.1,1.3,0.2,1.9c0,1.8,0,3.7,0,5.5
			c0,0.6,0.2,0.8,0.8,0.7c0.4,0,0.9,0.1,0.9-0.6c-0.1-2.7,0.2-5.4-0.1-8.1c-0.3-2.1-1.8-3.3-3.9-3.2
			C777.6,1057.7,776.6,1058.4,775.6,1059.7z M1200.5,1059.7c0-0.6,0-0.8,0-0.9c0.1-0.7-0.1-0.9-0.8-0.9c-0.7,0-0.8,0.3-0.8,0.9
			c0,3.4,0,6.7,0,10.1c0,0.6,0.1,0.9,0.9,0.9s0.8-0.4,0.8-1c0-1.1,0-2.2,0-3.4c0-1.3-0.1-2.6,0.2-3.9c0.3-1.4,1.5-2.3,2.8-2.3
			c1.5,0,2.4,0.8,2.6,2.4c0.1,0.5,0.1,1.1,0.1,1.7c0,1.9,0,3.8,0,5.8c0,0.7,0.4,0.7,0.8,0.7c0.5,0,0.9,0,0.8-0.7
			c0-2.6,0.1-5.1-0.1-7.7c-0.2-2.7-2.1-4.1-4.7-3.6C1202,1058,1201.3,1058.6,1200.5,1059.7z M941,1059.5c0-0.3-0.1-0.5-0.1-0.6
			c0-0.6,0.1-1.1-0.8-1.1c-0.9,0-0.8,0.5-0.8,1.1c0,3.3,0,6.6,0,9.8c0,0.5-0.1,1,0.8,1c0.7,0,0.9-0.2,0.9-0.9c0-2.3,0-4.6,0-6.8
			c0.1-1.7,1.3-2.8,2.8-2.8c1.7,0,2.6,0.9,2.7,2.8c0,0.5,0,1,0.1,1.6c0,1.8,0,3.6,0,5.4c0,0.7,0.3,0.8,0.9,0.8
			c0.5,0,0.8-0.1,0.8-0.7c0-2.6,0-5.2-0.1-7.8c-0.1-2.1-1.5-3.4-3.5-3.5C943.1,1057.6,941.9,1058.2,941,1059.5z M883.4,1059.5
			c-0.1-0.3-0.1-0.4-0.1-0.5c0-0.6,0.1-1.2-0.9-1.2s-0.8,0.7-0.8,1.2c0,3.2,0,6.3,0,9.5c0,0.5-0.3,1.2,0.8,1.2s0.8-0.7,0.8-1.3
			c0-1.8,0-3.7,0-5.5c0-0.7,0-1.4,0.3-2.1c0.6-1.2,1.7-1.8,3.2-1.6c1.2,0.2,2,1,2.1,2.4c0.1,2.4,0.1,4.9,0.1,7.3
			c0,0.7,0.3,0.7,0.9,0.8c0.5,0,0.8-0.1,0.8-0.7c0-2.6,0.1-5.1-0.1-7.7c-0.1-2.5-1.9-3.9-4.4-3.6
			C885,1057.9,884.2,1058.5,883.4,1059.5z M824.8,1068.3c1.4-2,2.6-3.7,3.8-5.5c0.8-1.2,1.7-2.3,2.5-3.5c0.5-0.8,0.3-1.4-0.5-1.4
			c-2.3,0-4.6,0-7,0c-0.6,0-0.8,0.2-0.8,0.8c0,0.6,0.2,0.7,0.7,0.7c1.2,0,2.5,0,3.7,0c0.5,0,1.3-0.3,1.5,0.2s-0.5,0.9-0.8,1.4
			c-1.7,2.4-3.4,4.8-5.1,7.3c-0.3,0.4-0.5,0.9-0.3,1.3s0.6,0.2,1,0.2c2.2,0,4.5,0,6.7,0c0.5,0,0.9,0,0.9-0.7c0-0.8-0.4-0.7-0.9-0.7
			C828.6,1068.3,826.9,1068.3,824.8,1068.3z M954.8,1057.7c-2,0-3.4,0.9-3.8,2.3c-0.4,1.6,0.2,2.7,2,3.7c0.9,0.5,1.8,0.8,2.7,1.3
			c0.8,0.4,1.2,1,1,2c-0.3,0.9-0.9,1.2-1.8,1.3c-1.2,0.1-2.2-0.2-3.1-1c-0.6-0.5-0.8-0.2-1.1,0.3c-0.4,0.5-0.1,0.7,0.3,1
			c1,0.7,2.2,1.1,3.5,1.2c2,0.1,3.4-0.9,3.9-2.5c0.4-1.6-0.2-2.8-2.1-3.8c-0.9-0.5-1.8-0.9-2.7-1.3c-0.7-0.4-1.2-0.9-0.9-1.7
			c0.2-0.8,0.9-1.2,1.7-1.3c1-0.1,1.9,0.2,2.7,0.8c0.6,0.4,0.7-0.1,1-0.4c0.3-0.4,0.2-0.7-0.2-0.9
			C956.8,1058.1,955.8,1057.7,954.8,1057.7z M1230.4,1069.8c2.5,0,3.9-0.9,4.3-2.5s-0.2-2.9-2.1-3.8c-1-0.5-1.9-0.9-2.9-1.5
			c-0.6-0.3-1-0.9-0.8-1.6s0.7-1.1,1.4-1.3c1-0.2,1.9,0,2.7,0.6c0.7,0.5,0.9,0.2,1.3-0.4c0.4-0.7-0.2-0.8-0.6-1
			c-0.8-0.5-1.7-0.7-2.6-0.7c-1.9-0.1-3.3,0.8-3.8,2.3c-0.5,1.7,0.2,2.8,2.1,3.8c0.9,0.5,1.9,0.9,2.8,1.4c0.7,0.4,1,1,0.8,1.8
			s-0.8,1.2-1.5,1.3c-1.2,0.2-2.3-0.1-3.3-0.8c-0.5-0.4-0.8-0.5-1.2,0.1c-0.5,0.7,0,0.9,0.4,1.1
			C1228.6,1069.5,1229.8,1069.8,1230.4,1069.8z M961.6,1064.5c0,1.4,0,2.9,0,4.3c0,0.7,0.1,0.9,0.9,0.9c0.7,0,0.9-0.3,0.9-0.9
			c0-2.3,0-4.6,0-7c0-0.8-0.2-1.8,0.2-2.3s1.4-0.2,2.1-0.2c0.6,0,0.8-0.2,0.8-0.8c0-0.6-0.3-0.7-0.8-0.7c-0.6,0-1.1,0-1.7,0
			c-0.2,0-0.5,0-0.6-0.3c-0.1-0.8-0.1-1.5,0.3-2.2c0.4-0.6,1.1-0.8,1.8-0.7c0.3,0,0.9,0.5,1-0.3c0.1-0.6-0.1-1.1-0.8-1.1
			c-2.3-0.2-3.9,0.7-4,3.6c0,0.5,0.2,1.2-0.8,1.1c-0.5-0.1-0.7,0.1-0.7,0.7c0,0.5,0.1,0.9,0.7,0.8c0.7-0.1,0.8,0.3,0.8,0.8
			C961.6,1061.6,961.6,1063,961.6,1064.5z M1132,1063.8c0,1.2,0.2,2.3,0.7,3.4c1.4,2.8,5.1,3.7,7.5,1.7c0.3-0.2,0.9-0.4,0.4-1.1
			c-0.5-0.6-0.7-0.5-1.3-0.1c-1.8,1.4-4.1,0.8-5.1-1.2c-0.8-1.7-0.8-3.5,0-5.2c1-2.1,3.2-2.6,5.1-1.2c0.5,0.4,0.8,0.4,1.2-0.1
			c0.5-0.6,0.1-0.9-0.3-1.2c-0.7-0.5-1.4-0.8-2.2-0.9C1134.6,1057.3,1132,1059.9,1132,1063.8z M913.1,1063.6L913.1,1063.6
			c0,1.2,0,2.5,0,3.7c0.1,2,2.5,3.2,4.3,2.3c0.6-0.3,0.4-0.7,0.4-1.1c-0.1-0.7-0.5-0.2-0.8-0.2c-1.5,0.2-2.2-0.3-2.2-1.9
			s0-3.2,0-4.8c0-2.2,0-2.2,2.2-2.3c0.5,0,0.9,0,0.9-0.7s-0.4-0.7-0.9-0.8c-2.2-0.1-2.2-0.1-2.2-2.3c0-0.1,0-0.2,0-0.2
			c0.1-0.6-0.1-0.9-0.8-0.9s-0.9,0.2-0.8,0.9c0,0.5,0,1,0,1.4c0,0.7,0.1,1.3-0.9,1.1c-0.5-0.1-0.5,0.2-0.5,0.6
			c0,0.3-0.2,0.9,0.4,0.8c1.3-0.1,1.1,0.7,1.1,1.4C913.1,1061.7,913.1,1062.6,913.1,1063.6z M922.1,1060.3c0-0.8,0-1.2,0-1.6
			c0-0.5,0-0.9-0.7-0.9c-0.6,0-0.9,0.2-0.9,0.9c0,3.4,0,6.7,0,10.1c0,0.6,0.1,1,0.8,1c0.8,0,0.8-0.4,0.8-1c0-1.9-0.1-3.8,0.1-5.6
			c0.3-2.1,1.2-3.2,3.3-3.6c1.1-0.2,0.7-0.9,0.6-1.4c-0.1-0.7-0.7-0.3-1-0.3C923.8,1058.1,922.9,1059,922.1,1060.3z M799.4,1060.4
			c0-0.8,0-1.2,0-1.6c0-0.6,0-0.9-0.7-0.9c-0.6,0-0.9,0.1-0.9,0.8c0,3.4,0,6.8,0,10.2c0,0.7,0.3,0.8,0.9,0.9c0.7,0,0.8-0.3,0.8-0.9
			c0-1.5,0-3,0-4.4c0-3,0.8-4,3.6-4.9c0.8-0.3,0.3-0.8,0.4-1.3c0.1-0.6-0.4-0.5-0.7-0.5C801.2,1057.9,800.3,1058.9,799.4,1060.4z
			 M982.2,1060.4c0-0.8,0-1.3,0-1.8c0.1-0.7-0.3-0.8-0.9-0.8c-0.6,0-0.8,0.2-0.8,0.8c0,3.4,0,6.9,0,10.3c0,0.7,0.3,0.8,0.9,0.8
			c0.6,0,0.8-0.2,0.8-0.8c0-1.6,0-3.1,0-4.7c0-2.8,0.9-4,3.6-4.7c0.9-0.3,0.4-0.9,0.5-1.3c0.1-0.6-0.5-0.4-0.8-0.4
			C984.1,1058,983.1,1058.9,982.2,1060.4z M1093.8,1061.4c0,2.5,0,5,0,7.4c0,0.7,0.2,0.9,0.9,0.9c0.7,0,0.8-0.3,0.8-0.9
			c0-4.9,0-9.8,0-14.6c0-0.7-0.2-0.9-0.9-0.9c-0.7,0-0.8,0.3-0.8,0.9C1093.8,1056.6,1093.8,1059,1093.8,1061.4z M1009.1,1063.9
			c0-1.8,0-3.5,0-5.3c0-0.7-0.3-0.8-0.9-0.8c-0.6,0-0.8,0.2-0.8,0.8c0,3.4,0,6.9,0,10.3c0,0.7,0.3,0.8,0.9,0.8
			c0.6,0,0.8-0.2,0.8-0.8C1009.1,1067.2,1009.1,1065.5,1009.1,1063.9z M1212.8,1063.7c0-1.7,0-3.4,0-5.1c0-0.7-0.4-0.7-0.9-0.8
			c-0.6,0-0.8,0.2-0.8,0.8c0,3.4,0,6.9,0,10.3c0,0.6,0.2,0.8,0.8,0.8c0.6,0,0.9-0.2,0.8-0.8
			C1212.8,1067.2,1212.8,1065.5,1212.8,1063.7z M834.1,1063.7c0,1.7,0,3.4,0,5c0,0.6,0,1,0.8,1c0.7,0,0.9-0.2,0.9-0.9
			c0-3.4,0-6.7,0-10.1c0-0.7-0.2-0.9-0.9-0.9s-0.8,0.2-0.8,0.8C834.2,1060.4,834.1,1062,834.1,1063.7z M819.9,1063.7
			c0-1.7,0-3.3,0-5c0-0.6-0.1-0.9-0.8-0.9s-0.9,0.2-0.9,0.9c0,3.4,0,6.8,0,10.2c0,0.6,0.2,0.8,0.8,0.8s0.8-0.2,0.8-0.8
			C819.9,1067.1,819.9,1065.4,819.9,1063.7z M1212,1055.4c0.7,0.2,0.9-0.1,0.9-0.8c0-0.6,0.1-1.2-0.9-1.1c-0.7,0.1-1,0.1-1,0.9
			C1211.1,1055,1211,1055.6,1212,1055.4z M820,1054.5c0.2-0.8-0.2-1-1-1s-0.8,0.4-0.9,1c-0.1,0.8,0.3,1,1,1
			C819.9,1055.5,820.1,1055.1,820,1054.5z M1008.3,1055.4c0.8,0.2,1-0.2,1-0.9c0-0.7-0.1-1.1-1-1.1c-0.8,0-0.9,0.4-0.9,1
			C1007.4,1055.1,1007.4,1055.6,1008.3,1055.4z M835,1055.4c0.8,0.2,0.8-0.3,0.9-0.9c0-0.7-0.1-1-1-1s-0.8,0.5-0.9,1.1
			C834,1055.4,834.3,1055.6,835,1055.4z"/>
		<path class="st1" d="M1199.8,1038.1c-6.5,0-13.6-1.4-20-5.3c-5.8-3.5-10-8.4-12.8-14.5c-3.7-8.3-4.4-17.1-3.4-26.1
			c0.6-5.5,2.1-10.8,4.9-15.6c3.3-5.8,8.1-10.2,14.2-12.8c11-4.7,22.3-5.2,33.7-1.2c8.5,3,14.6,8.8,18.3,17
			c3.8,8.2,4.5,16.9,3.5,25.8c-0.6,5.6-2.2,10.9-5,15.7c-4,7-10,11.8-17.6,14.6C1210.8,1037.4,1205.8,1038,1199.8,1038.1z
			 M1219.8,999.2c0-1.2,0.1-2.4,0-3.6c-0.4-4.6-1.3-9.1-3.6-13.2c-3.5-6.1-8.7-9.2-15.7-9.1c-6.9,0.1-11.7,3.5-14.9,9.3
			c-2.9,5.4-3.7,11.2-3.6,17.3c0.1,5.5,1,10.9,3.8,15.8c3.4,5.9,8.5,9.1,15.4,9.1c6.8,0,11.8-3.3,15.1-9.1
			C1219.1,1010.6,1219.9,1004.9,1219.8,999.2z"/>
		<path class="st1" d="M801.6,997.8c2.6,0.6,5.2,1.2,7.6,2.4c8.2,3.8,11.2,11.5,9.7,19.6c-1.2,7-5.8,11.2-12,13.8
			c-5.2,2.1-10.6,3-16.1,3.1c-9.2,0.1-18.4,0-27.6,0.1c-0.9,0-1-0.3-1-1.1c0-24.4,0-48.9,0-73.3c0-0.8,0.2-1.1,1-1.1
			c9.2,0,18.5,0,27.7,0.1c5.8,0.1,11.5,0.8,16.8,3.5c6.9,3.5,10.1,9.7,9.4,17.3c-0.7,8.4-6.3,13.4-14.3,15.4
			C802.4,997.6,802,997.7,801.6,997.8z M779.5,1014.2c0,3,0,6,0,9c0,0.4-0.1,0.9,0.6,0.9c5,0,9.9,0.1,14.7-1.4
			c5.8-1.8,7.4-6.1,6.4-11.1c-0.8-3.7-3.7-5.3-7.1-6.1c-4.5-1.2-9.2-1-13.8-1.1c-0.7,0-0.8,0.3-0.8,0.9
			C779.5,1008.2,779.5,1011.2,779.5,1014.2z M779.5,983c0,2.9,0,5.8,0,8.6c0,0.5-0.1,0.9,0.7,0.9c4.3-0.1,8.6,0.1,12.7-1
			c3.1-0.8,5.7-2.4,6.4-5.7c1.3-5.9-0.8-9.9-6.8-11.3c-4.1-1-8.2-0.7-12.4-0.8c-0.8,0-0.6,0.5-0.6,1
			C779.5,977.4,779.5,980.2,779.5,983z"/>
		<path class="st1" d="M983.2,998.9c0-12.1,0-24.2,0-36.4c0-1.1,0.3-1.3,1.3-1.3c5.2,0.1,10.4,0,15.6,0c0.9,0,1.1,0.2,1.1,1.1
			c0,9,0,18.1,0,27.1c0,0.9,0.2,1.2,1.2,1.2c8.7,0,17.4,0,26.2,0c0.9,0,1.2-0.2,1.2-1.2c0-9,0-18,0-27c0-1,0.3-1.2,1.2-1.2
			c5.2,0.1,10.5,0,15.7,0c0.7,0,1,0.1,1,1c0,24.5,0,49,0,73.5c0,0.7-0.2,0.9-0.9,0.9c-5.3,0-10.6,0-16,0c-0.9,0-1.1-0.3-1.1-1.1
			c0-9.8,0-19.7,0-29.5c0-1.1-0.3-1.4-1.4-1.4c-8.7,0-17.4,0-26,0c-0.9,0-1.1,0.2-1.1,1.1c0,9.9,0,19.8,0.1,29.6
			c0,1.1-0.3,1.3-1.3,1.3c-5.2-0.1-10.4,0-15.6,0c-0.9,0-1.1-0.2-1.1-1.1C983.2,1023.3,983.2,1011.1,983.2,998.9z"/>
		<path class="st1" d="M1137.1,999.2c0.7,0.2,1.4,0.4,2,0.7c3.8,1.3,6.1,4.2,7.6,7.7c3.5,8.4,6.9,16.8,10.3,25.3
			c0.5,1.2,1,2.5,1.5,3.9c-0.6,0-1,0-1.4,0c-5.4,0-10.8,0-16.2,0c-1.1,0-1.5-0.4-1.9-1.4c-2.5-7-4.9-14-7.7-20.9
			c-1.1-2.6-2.4-5-5.1-6.5c-1.6-0.9-3.3-1.2-5-1.3c-1.8-0.1-3.7,0-5.5-0.1c-0.9-0.1-1.1,0.3-1.1,1.2c0,9.2,0,18.5,0,27.7
			c0,1-0.2,1.3-1.3,1.3c-5.2-0.1-10.3,0-15.5,0c-0.9,0-1.2-0.1-1.2-1.1c0-24.4,0-48.8,0-73.2c0-0.9,0.2-1.1,1.1-1.1
			c8.2,0.1,16.5,0,24.7,0.1c6.4,0,12.7,0.5,18.8,2.6c5.5,1.9,9.8,5.2,11.3,11.1c1.7,6.8,1.2,13.3-4.1,18.6c-2.6,2.6-5.8,4-9.3,4.8
			c-0.7,0.2-1.3,0.3-2,0.5C1137.1,999,1137.1,999.1,1137.1,999.2z M1114.6,984c0,2.5,0,5,0,7.6c0,2,0,2,2,2c3.9,0,7.8-0.1,11.7-1.1
			c6.5-1.7,8-6.6,6.7-11.6c-0.9-3.6-3.8-4.9-7.1-5.6c-4.1-0.9-8.3-0.7-12.5-0.8c-0.8,0-0.8,0.3-0.8,0.9
			C1114.6,978.2,1114.6,981.1,1114.6,984z"/>
		<path class="st1" d="M832.1,998.9c0-12.1,0-24.2,0-36.3c0-1,0.2-1.3,1.3-1.3c15.3,0,30.6,0,45.8,0c0.9,0,1.2,0.2,1.2,1.2
			c-0.1,3.7-0.1,7.4,0,11.2c0,1.1-0.3,1.2-1.3,1.2c-9.4,0-18.8,0-28.2,0c-1,0-1.3,0.2-1.3,1.3c0.1,4.8,0.1,9.5,0,14.3
			c0,1.2,0.4,1.3,1.4,1.3c8.6,0,17.3,0,25.9,0c1.1,0,1.3,0.3,1.3,1.3c-0.1,3.6-0.1,7.2,0,10.8c0,1.2-0.4,1.3-1.4,1.3
			c-8.6,0-17.3,0-25.9,0c-1.1,0-1.3,0.2-1.3,1.3c0.1,5.2,0.1,10.4,0,15.6c0,0.9,0.2,1.2,1.2,1.2c9.7,0,19.4,0,29,0
			c1,0,1.4,0.2,1.4,1.3c-0.1,3.8-0.1,7.5,0,11.3c0,0.8-0.2,1.1-1,1.1c-15.7,0-31.4,0-47,0c-1.1,0-1-0.5-1-1.2
			C832.1,1023.3,832.1,1011.1,832.1,998.9z"/>
		<path class="st1" d="M949.3,960c5.9,0,11.6,0.6,17.3,2.3c0.7,0.2,1.1,0.4,1,1.3c-0.4,3.9-0.7,7.9-1,11.8c-0.1,1-0.4,1-1.2,0.7
			c-5.5-2.1-11.2-3.2-17.1-2.8c-2.7,0.2-5.3,0.6-7.6,2.2c-4.1,2.8-4.1,7.9-0.1,10.9c2.2,1.6,4.7,2.7,7.2,3.7
			c4.6,1.8,9.3,3.5,13.5,6.1c5,3.2,8.6,7.4,9.6,13.4c1.8,10.4-2.2,20.4-12.8,25.2c-6.4,2.9-13.2,3.5-20.2,3.2
			c-5.7-0.3-11.3-1.2-16.9-2.8c-0.8-0.2-1.1-0.4-1-1.4c0.5-4.3,0.9-8.6,1.3-12.9c0.1-1.1,0.5-0.9,1.2-0.6c5.5,2.4,11.3,3.9,17.4,4
			c3,0.1,6-0.3,8.7-1.6c5.6-2.8,6.1-9.5,1.1-13.2c-2.3-1.7-4.9-2.8-7.5-3.9c-4.4-1.8-8.9-3.3-12.9-5.9c-4.8-3-8.3-7-9.4-12.7
			c-2.1-10.3,2.9-19.9,12.6-24C937.8,960.7,943.5,959.9,949.3,960z"/>
		<path class="st1" d="M1074.8,972.8c2-2.8,4-5.5,6-8.2c0.4,0.3,0.2,0.7,0.2,1.1c0,23.2,0,46.5,0,69.7c0,1-0.2,1.3-1.2,1.3
			c-5.2-0.1-10.3,0-15.5,0c-0.9,0-1.2-0.1-1.2-1.1c0-24.4,0-48.8,0-73.2c0-0.9,0.2-1.1,1.1-1.2c1.5-0.1,2.4,0.4,3.2,1.6
			C1069.8,966.2,1072.3,969.4,1074.8,972.8z"/>
		<path class="st2" d="M1074.7,968.5c-9.9-13.5-19.8-26.9-29.7-40.4c19.9,0,39.6,0,59.5,0C1094.5,941.5,1084.7,954.9,1074.7,968.5z"
			/>
		<path class="st2" d="M1123.4,1065c0.6-0.9,1-1.8,1.3-2.7c0.2-0.6,0.5-0.6,1-0.4c0.4,0.2,0.8,0.4,0.4,0.9c-0.2,0.4-0.3,1-0.6,1.3
			c-1.3,1.6-0.8,2.9,0.6,4.1c0.7,0.6,0.5,1-0.2,1.4c-0.5,0.3-0.7,0-1-0.3c-0.5-0.6-0.9-1.4-1.5-1.6c-0.4-0.1-1.1,0.8-1.7,1.2
			c-1.8,1.1-3.7,1.3-5.5,0.1c-1.5-0.9-2.1-2.6-1.7-4.5c0.3-1.5,1.3-2.6,2.5-3.3c0.6-0.4,0.7-0.7,0.2-1.2c-0.5-0.7-0.9-1.4-1-2.3
			c-0.2-1.9,0.6-3.4,2.3-4c1.7-0.6,3.6,0,4.4,1.4c0.9,1.5,0.6,3.3-0.8,4.6c-0.6,0.6-1.3,0.9-2.1,1.4
			C1121.3,1062.5,1122.3,1063.7,1123.4,1065z M1119.4,1068.4c0.8,0,1.8-0.6,2.6-1.4c0.4-0.4,0.4-0.7,0-1.1c-0.8-1-1.6-2-2.5-2.9
			c-0.9-1.1-1.1-1.1-2.2-0.1c-0.2,0.2-0.4,0.4-0.6,0.6c-0.7,1.1-0.9,2.2-0.3,3.4C1117,1067.8,1117.8,1068.4,1119.4,1068.4z
			 M1122,1057.1c0-1.2-0.8-2.1-2-2.1s-2.1,1-2.1,2.3c0,0.8,1.1,2.8,1.6,2.8C1120.3,1060.2,1122,1058.2,1122,1057.1z"/>
		<path class="st2" d="M1157.4,1059.3c2.5-2.4,4.5-2.3,6.5,0.3c0.9-1.1,1.9-1.9,3.4-2c1.9-0.1,3.5,0.9,3.8,2.8
			c0.5,2.9,0.2,5.8,0.2,8.7c0,0.7-0.6,0.5-1,0.5c-0.5,0.1-0.7-0.2-0.7-0.7c0-1.9,0-3.8,0-5.8c0-0.6,0-1.1-0.1-1.7
			c-0.3-1.7-1-2.4-2.5-2.4c-1.4,0-2.6,1-2.7,2.6c-0.1,2.3-0.1,4.6-0.1,6.9c0,0.6,0,1.1-0.9,1c-0.6,0-0.8-0.2-0.8-0.8
			c0-1.9,0-3.8,0-5.6c0-0.6-0.1-1.1-0.1-1.7c-0.3-1.7-1-2.4-2.4-2.4c-1.3,0-2.4,1-2.6,2.5c-0.3,2.4-0.1,4.8-0.1,7.2
			c0,0.7-0.2,0.9-0.9,0.9c-0.8,0-0.8-0.4-0.8-1c0-3.3,0-6.6,0-9.8c0-0.6-0.1-1.1,0.8-1.1s0.9,0.5,0.8,1.1
			C1157.3,1059,1157.4,1059.2,1157.4,1059.3z"/>
		<path class="st2" d="M990.2,1059.5c2.4-2.5,4.6-2.4,6.5,0.2c0.8-0.9,1.6-1.8,3-1.9c2.4-0.3,4.2,1,4.3,3.5c0.1,2.6,0,5.2,0.1,7.8
			c0,0.6-0.3,0.7-0.8,0.7c-0.6,0-0.9-0.1-0.9-0.8c0-1.9,0-3.8,0-5.6c0-0.6,0-1.2-0.1-1.8c-0.2-1.4-0.9-2.1-2.1-2.3
			c-1.3-0.2-2.4,0.4-2.9,1.7c-0.2,0.6-0.3,1.2-0.3,1.9c0,2,0,3.9,0,5.9c0,0.6,0.1,1.1-0.8,1.1c-1,0-0.9-0.5-0.9-1.2
			c0-2.3,0-4.6-0.1-6.8c-0.1-1.6-0.9-2.5-2.3-2.6c-1.4-0.1-2.5,0.7-2.7,2.3c-0.4,2.4-0.2,4.9-0.2,7.3c0,0.9-0.4,1-1.1,0.9
			c-0.8,0-0.6-0.6-0.6-1c0-3.2,0-6.5,0-9.7c0-0.6-0.1-1.2,0.9-1.2s0.8,0.6,0.8,1.2C990.2,1059.1,990.2,1059.2,990.2,1059.5z"/>
		<path class="st2" d="M859.4,1066.6c-1.9,2.1-3.5,2.7-5.4,2c-2-0.8-3.2-2.9-3.1-5.5c0-0.8,0.2-1.7,0.5-2.5c1.1-2.8,4.9-4.5,7.9-1
			c0.2-0.3,0.1-0.7,0.1-1c-0.1-0.7,0.2-0.8,0.8-0.8s0.9,0.1,0.9,0.8c0,3.2,0,6.5,0,9.7c-0.1,2.9-1.7,4.5-4.6,4.8
			c-1.5,0.1-2.9-0.2-4.3-0.8c-0.5-0.2-0.8-0.4-0.5-1.1c0.3-0.6,0.6-0.6,1.1-0.3c1.1,0.6,2.2,0.8,3.5,0.8c1.9-0.1,3.1-1.3,3.2-3.2
			C859.4,1067.9,859.4,1067.4,859.4,1066.6z M859.4,1063.2c0-0.3,0-0.6,0-0.8c-0.2-1.8-1.6-3.1-3.2-3.2c-1.6-0.1-2.9,0.8-3.4,2.4
			c-0.4,1.2-0.4,2.5,0.1,3.6c0.5,1.2,1.3,1.9,2.5,2.1c1.3,0.2,2.3-0.4,3.1-1.4C859.2,1065.1,859.4,1064.2,859.4,1063.2z"/>
		<path class="st2" d="M1032.7,1059.9c0-0.7,0-1.1,0-1.4c0-0.7,0.5-0.6,0.9-0.6c0.5,0,0.8,0,0.8,0.6c0,3.5,0,7-0.1,10.5
			c-0.1,2-1.5,3.4-3.5,3.9c-1.9,0.4-3.7,0.1-5.5-0.7c-0.5-0.2-0.7-0.4-0.4-1c0.3-0.5,0.5-0.7,1.1-0.3c1,0.5,2.1,0.8,3.2,0.8
			c2.1,0,3.3-1.2,3.4-3.3c0-0.5,0-0.9,0-1.4c-0.3-0.2-0.3,0-0.4,0.1c-1.2,1.4-2.7,2-4.5,1.6c-1.8-0.5-2.9-1.8-3.3-3.6
			c-0.4-1.6-0.4-3.2,0.3-4.7c1.4-3.1,5-3.7,7.4-1.3C1032.3,1059.3,1032.4,1059.5,1032.7,1059.9z M1032.7,1063.1
			c0-0.3-0.1-0.7-0.1-1.1c-0.4-1.7-1.8-2.8-3.4-2.8s-2.8,1.1-3.2,2.8c-0.2,1.1-0.2,2.3,0.3,3.4c1.1,2.3,3.9,2.7,5.5,0.7
			C1032.5,1065.2,1032.7,1064.2,1032.7,1063.1z"/>
		<path class="st2" d="M813,1059.6c0.3-0.7-0.4-2,1.1-1.8c0.5,0.1,0.6,0.2,0.6,0.7c0,3.5,0,7-0.1,10.4c-0.1,2.1-1.4,3.5-3.5,4
			c-1.9,0.4-3.6,0.1-5.4-0.7c-0.4-0.2-0.9-0.4-0.5-1c0.3-0.6,0.6-0.6,1.1-0.3c1,0.5,2.1,0.8,3.2,0.8c2.1,0,3.3-1.2,3.4-3.3
			c0-0.5,0-1,0-1.8c-1.5,1.9-3.1,2.7-5.3,2c-2.1-0.7-3.3-2.7-3.2-5.5c0-2.6,1.3-4.6,3.4-5.3C809.7,1057.3,811.1,1057.8,813,1059.6z
			 M806.3,1063.5c0,0.2,0,0.7,0.2,1.2c0.4,1.7,1.6,2.7,3.1,2.7s2.8-0.9,3.3-2.4c0.5-1.3,0.4-2.6-0.2-3.8c-0.7-1.3-1.8-2-3.3-1.9
			c-1.3,0.1-2.3,0.9-2.8,2.4C806.3,1062.1,806.3,1062.6,806.3,1063.5z"/>
		<path class="st2" d="M901.7,1059.8c0-2,0-3.8,0-5.5c0-0.6,0-1,0.8-1.1c0.9,0,0.8,0.5,0.8,1.1c0,4.8,0,9.5,0,14.3
			c0,0.6,0.1,1.1-0.8,1.1c-0.9,0-0.8-0.5-0.8-1.1c0-0.3,0.1-0.6-0.2-0.8c-0.7,0.8-1.5,1.7-2.6,1.9c-2,0.5-4-0.5-4.9-2.5
			c-1-2-1-4.1-0.3-6.2C894.5,1058,898.4,1055.9,901.7,1059.8z M901.8,1063.9c0-1.5-0.4-2.8-1.1-3.6c-1.4-1.7-3.8-1.5-5,0.3
			c-1.1,1.7-1.1,4.7,0.1,6.4c1.2,1.7,3.3,1.9,4.7,0.4C901.5,1066.4,901.7,1065.1,901.8,1063.9z"/>
		<path class="st2" d="M1045.2,1067.7c0,1.7,0,3,0,4.4c0,0.6,0,1-0.8,1c-0.7,0-0.8-0.3-0.8-0.9c0-4.5,0-9,0-13.4
			c0-0.6,0.1-0.9,0.9-0.9c0.7,0,0.8,0.3,0.8,0.9c0,0.3,0,0.6,0,1.1c0.9-0.9,1.6-1.8,2.8-2c2-0.4,4,0.5,4.9,2.5c1,2.1,1,4.3,0.2,6.5
			c-1.5,3.7-5.6,4-7.5,1.3C1045.6,1068,1045.5,1068,1045.2,1067.7z M1052.1,1063.9c0-1.3-0.3-2.5-0.9-3.3c-1.1-1.7-3.2-1.9-4.7-0.5
			c-1.9,1.8-1.9,5.6,0,7.4c1.5,1.5,3.7,1.2,4.8-0.6C1051.9,1065.9,1052.1,1064.9,1052.1,1063.9z"/>
		<path class="st2" d="M1082.3,1060.1c1.3-1.9,2.8-2.8,4.8-2.3c2.1,0.5,3.1,2,3.5,4c0.3,1.4,0.3,2.9-0.1,4.3
			c-0.5,1.9-1.6,3.3-3.5,3.7c-1.9,0.4-3.4-0.4-4.7-2.2c0,1.7,0,3.2,0,4.6c0,0.6,0,1-0.8,1s-0.9-0.3-0.9-1c0-4.4,0-8.8,0-13.2
			c0-0.7,0-1.1,0.9-1.1s0.8,0.6,0.8,1.1C1082.3,1059.2,1082.3,1059.5,1082.3,1060.1z M1082.3,1063.9c0,1.3,0.3,2.5,1.2,3.5
			c1.5,1.6,3.9,1.4,4.9-0.5c1.1-2,1.1-4.2-0.1-6.2c-1-1.8-3.2-2-4.7-0.5C1082.6,1061.1,1082.3,1062.4,1082.3,1063.9z"/>
		<path class="st2" d="M1176.2,1067.5c0,1.8,0,3.3,0,4.7c0,0.6-0.1,0.9-0.8,0.9c-0.6,0-0.9-0.1-0.9-0.9c0-4.5,0-9,0-13.4
			c0-0.7,0.1-1,0.9-1s0.8,0.4,0.8,1c0,0.3,0,0.6,0,1.2c0.9-1.1,1.7-2,2.9-2.2c2.3-0.5,4.5,0.8,5.2,3.3c0.5,1.6,0.5,3.3,0.1,5
			c-0.5,1.9-1.5,3.3-3.5,3.7C1179,1070.2,1177.5,1069.4,1176.2,1067.5z M1176.1,1063.8c0,1.4,0.3,2.6,1.3,3.6
			c1.5,1.5,3.8,1.3,4.9-0.6c1.1-2,1.1-4.2-0.1-6.2c-1.1-1.8-3.3-2-4.8-0.5C1176.4,1061.1,1176.1,1062.4,1176.1,1063.8z"/>
		<path class="st2" d="M1221.2,1064.4c-1,0-1.9,0.1-2.9,0s-1,0.4-0.8,1.1c0.7,2.7,3.5,3.7,5.8,2.1c0.5-0.3,0.8-0.7,1.3,0
			c0.6,0.8-0.2,0.9-0.5,1.1c-3.1,2.3-7.3,0.7-8.2-3.2c-0.5-2-0.3-4.1,0.9-5.9c1-1.5,2.3-2.2,4.1-2.1c1.8,0.1,3,1.2,3.7,2.8
			c0.1,0.2,0.2,0.4,0.3,0.7c0.9,2.9,0.7,3.3-2.4,3.3C1222.1,1064.4,1221.6,1064.4,1221.2,1064.4z M1220.5,1063.1c0.8,0,1.6,0,2.4,0
			c0.3,0,0.6,0.1,0.7-0.4c0.2-2.1-1.8-4-3.7-3.5c-1.3,0.3-1.9,1.3-2.2,2.6c-0.4,1.3-0.3,1.4,1,1.4
			C1219.2,1063.1,1219.8,1063.1,1220.5,1063.1z"/>
		<path class="st2" d="M1103.8,1064.4c-1,0-2.1,0-3.1,0c-0.7,0-0.8,0.2-0.7,0.9c0.5,2.9,3.4,4.1,5.9,2.4c0.6-0.4,0.9-0.5,1.3,0.1
			c0.5,0.7-0.2,0.8-0.5,1.1c-2.7,2.1-6.6,1.1-7.9-2.1c-1-2.4-0.9-4.9,0.6-7.1c1.9-2.8,5.9-2.6,7.5,0.4c0.1,0.2,0.2,0.5,0.3,0.8
			c0.4,1,0.8,2.2,0.4,3.1c-0.5,1.2-1.9,0.3-2.8,0.5C1104.6,1064.5,1104.2,1064.4,1103.8,1064.4z M1103.1,1063.1c0.8,0,1.6,0,2.4,0
			c0.5,0,0.7-0.2,0.6-0.7c-0.1-1.7-1.3-3.2-2.7-3.3c-1.5-0.1-2.8,0.9-3.2,2.6c-0.3,1.3-0.3,1.4,1.1,1.4
			C1101.9,1063.1,1102.5,1063.1,1103.1,1063.1z"/>
		<path class="st2" d="M934.4,1062.8c0.1-3.1-1.8-4.3-4.9-3.2c-0.3,0.1-0.7,0.5-1.1,0.2c-0.5-0.4-0.4-1.1,0.2-1.4
			c0.7-0.3,1.5-0.6,2.3-0.6c3.5-0.3,5.2,1.3,5.2,4.8c0,2,0,4,0,6c0,0.6,0.2,1.2-0.8,1.2s-0.8-0.6-0.8-1.2c0-0.1,0-0.2,0-0.4
			c-1.2,1.3-2.5,2-4.3,1.7s-3-1.6-3.1-3.4c-0.1-1.9,0.9-3.3,2.8-3.8C931.3,1062.1,932.8,1062.4,934.4,1062.8z M932.2,1063.7
			c-0.5-0.1-1.1,0-1.6,0.1c-1.1,0.2-1.7,0.9-1.9,2.1c-0.1,1,0.3,1.9,1.2,2.4c1.5,0.8,3.7,0,4.3-1.7c0.8-2,0.4-2.7-1.8-2.8
			C932.4,1063.7,932.3,1063.7,932.2,1063.7z"/>
		<path class="st2" d="M767.2,1064.4c-1,0-2,0-3,0c-0.6,0-0.8,0.1-0.7,0.8c0.5,2.9,3.4,4.1,5.9,2.4c0.5-0.4,0.9-0.6,1.3,0.1
			c0.5,0.7-0.2,0.8-0.5,1.1c-2.7,2.1-6.6,1.1-7.9-2.1c-1-2.4-0.9-4.9,0.6-7.1c1.9-2.9,6-2.6,7.6,0.5c0.1,0.2,0.2,0.5,0.3,0.8
			c0.4,1,0.8,2.1,0.4,3c-0.5,1.2-1.8,0.3-2.7,0.5C768.1,1064.5,767.6,1064.4,767.2,1064.4z M766.5,1063.1c0.8,0,1.7,0,2.5,0
			c0.4,0,0.6-0.1,0.6-0.5c0-1.4-1.2-3.2-2.5-3.4c-1.6-0.3-3,0.7-3.5,2.4c-0.4,1.5-0.4,1.5,1.2,1.5
			C765.4,1063.1,766,1063.1,766.5,1063.1z"/>
		<path class="st2" d="M791.1,1064.4c-1.1,0-2.2,0-3.2,0c-0.6,0-0.7,0.2-0.6,0.8c0.5,2.9,3.4,4.2,5.8,2.5c0.5-0.3,0.8-0.7,1.3,0
			c0.6,0.8-0.2,0.9-0.5,1.2c-2.7,2-6.5,1-7.8-2.1c-1-2.4-0.9-4.9,0.6-7.1c1.9-2.9,6.1-2.6,7.6,0.5c0.6,1.1,0.7,2.3,0.8,3.6
			c0,0.5-0.2,0.7-0.7,0.7C793.3,1064.4,792.2,1064.4,791.1,1064.4z M790.2,1063.1c0.8,0,1.7,0,2.5,0c0.4,0,0.6-0.1,0.6-0.6
			c0-1.7-1.3-3.3-2.8-3.4s-2.8,1-3.2,2.8c-0.2,0.9-0.1,1.4,1,1.2C789,1063.1,789.6,1063.1,790.2,1063.1z"/>
		<path class="st2" d="M876.9,1068c-1.3,1.5-2.6,2.1-4.4,1.8c-1.8-0.3-3-1.7-3-3.5c-0.1-1.9,0.9-3.3,2.7-3.8
			c1.6-0.5,3.1-0.1,4.6,0.2c0.3-2.5-1.1-3.9-3.7-3.5c-0.5,0.1-1.1,0.2-1.6,0.5c-0.6,0.3-0.7,0.1-1-0.4c-0.2-0.6,0-0.7,0.5-1
			c1.2-0.5,2.5-0.7,3.9-0.6c1.9,0.2,3.3,1.5,3.5,3.4c0.3,2.6,0.1,5.3,0.1,7.9c0,0.7-0.4,0.6-0.9,0.6c-0.4,0-0.8,0-0.8-0.6
			C876.9,1068.8,876.9,1068.5,876.9,1068z M876.9,1065.1c0.2-0.8-0.3-1.2-1.1-1.3c-0.9-0.1-1.8-0.2-2.7,0c-1.1,0.2-1.8,1-1.9,2.2
			c-0.1,1.2,0.5,2.1,1.7,2.5C874.9,1069.1,876.8,1067.5,876.9,1065.1z"/>
		<path class="st2" d="M1061.5,1064.4c-1,0-2,0.1-3,0s-1,0.3-0.8,1.1c0.8,2.8,3.4,3.8,5.8,2.1c0.5-0.3,0.8-0.5,1.2,0
			c0.5,0.7-0.1,0.9-0.4,1.1c-3.2,2.6-7.8,0.6-8.4-3.7c-0.3-2.2,0-4.3,1.6-6c2.1-2.2,5.5-1.8,7,0.8c0.2,0.3,0.3,0.6,0.4,0.9
			c0.4,1,0.8,2.2,0.4,3.1c-0.5,1.3-1.9,0.3-2.8,0.5C1062.3,1064.5,1061.9,1064.4,1061.5,1064.4z M1060.6,1063.1c0.8,0,1.7,0,2.5,0
			c0.3,0,0.7,0.1,0.6-0.4c-0.2-1.5-0.9-3.3-2.5-3.5c-1.5-0.2-2.9,0.7-3.4,2.3c-0.5,1.6-0.5,1.6,1.2,1.6
			C1059.6,1063.1,1060.1,1063.1,1060.6,1063.1z"/>
		<path class="st2" d="M1194,1068.1c-1.2,1.4-2.6,1.9-4.2,1.7c-1.8-0.3-3-1.6-3-3.3c-0.1-2,0.9-3.4,2.7-3.9c1.3-0.4,2.5-0.2,3.8,0.1
			c0.7,0.2,0.8,0,0.8-0.7c-0.2-2.1-1.6-3.1-3.8-2.7c-0.5,0.1-1,0.2-1.5,0.5c-0.5,0.2-0.8,0.2-1-0.4c-0.2-0.5-0.1-0.7,0.4-1
			c1.3-0.6,2.6-0.8,4-0.6c2,0.2,3.4,1.6,3.4,3.7c0.1,2.4,0,4.9,0.1,7.3c0,0.5,0,0.9-0.7,0.9s-1-0.2-0.9-0.9
			C1194.1,1068.7,1194,1068.5,1194,1068.1z M1194.1,1065c0.2-0.7-0.2-1.1-1-1.2c-1-0.1-2-0.3-3-0.1c-1.1,0.2-1.8,1.1-1.8,2.2
			c0,1.2,0.5,2,1.6,2.4C1192.1,1069.1,1194.1,1067.5,1194.1,1065z"/>
		<path class="st2" d="M1067.5,1063.8c0-3.9,2.7-6.5,6.1-6c2.9,0.4,4.9,3.6,4.4,7.1s-3,5.5-6.1,5
			C1069.3,1069.4,1067.5,1066.9,1067.5,1063.8z M1069.1,1063.8c0.1,1.1,0.3,2.2,0.9,3.1c1.4,2,3.9,2,5.3,0c1.2-1.8,1.2-4.7-0.1-6.4
			c-1.4-1.9-4-1.8-5.3,0.2C1069.4,1061.6,1069.2,1062.7,1069.1,1063.8z"/>
		<path class="st2" d="M967.4,1063.8c0-3.9,2.6-6.5,6-6.1c1.8,0.2,3,1.3,3.8,2.9c1.2,2.5,0.8,5.9-1,7.7c-2.4,2.5-6.4,1.9-8-1.3
			C967.6,1066.1,967.4,1065,967.4,1063.8z M969,1063.8c0,0.9,0.2,1.8,0.7,2.7c0.6,1.2,1.6,1.9,2.9,1.9c1.4,0,2.3-0.7,2.9-1.9
			c0.9-2,0.9-4-0.3-5.8c-1.4-2.1-4.1-2-5.4,0.1C969.3,1061.7,969.1,1062.7,969,1063.8z"/>
		<path class="st2" d="M1152.9,1063.6c0,1.9-0.4,3.5-1.7,4.8c-2.4,2.5-6.4,1.9-8-1.2c-1-1.9-1-3.9-0.3-5.9c0.9-2.5,3-3.8,5.5-3.4
			c2.3,0.3,4.1,2.3,4.4,4.8C1152.9,1062.9,1152.9,1063.3,1152.9,1063.6z M1144.2,1063.8c0,1.3,0.3,2.5,1.1,3.5
			c1.3,1.6,3.6,1.6,4.9,0c1.5-1.8,1.5-5.3-0.1-7c-1.4-1.6-3.7-1.5-5,0.2C1144.4,1061.5,1144.2,1062.6,1144.2,1063.8z"/>
		<path class="st2" d="M1014.4,1059.3c0.7-0.7,1.4-1.4,2.4-1.6c2.6-0.5,4.6,0.9,4.8,3.5s0,5.2,0.1,7.8c0,0.7-0.4,0.6-0.9,0.6
			s-0.8-0.1-0.8-0.7c0-1.9,0-3.8,0-5.7c0-0.5,0-1-0.1-1.6c-0.2-1.7-1.1-2.5-2.6-2.5c-1.4,0-2.5,0.9-2.8,2.4c-0.1,0.5-0.1,1-0.1,1.5
			c0,1.8,0,3.6,0,5.4c0,0.5,0.3,1.2-0.8,1.2c-1,0-0.8-0.6-0.8-1.2c0-3.2,0-6.4,0-9.6c0-0.5-0.2-1.1,0.7-1.1c1,0,0.9,0.5,0.9,1.1
			C1014.3,1059,1014.3,1059.1,1014.4,1059.3z"/>
		<path class="st2" d="M840.9,1059.6c0.8-1,1.6-1.7,2.6-1.9c2.5-0.5,4.4,0.8,4.7,3.4s0,5.3,0.1,7.9c0,0.7-0.4,0.6-0.9,0.7
			c-0.5,0-0.8-0.1-0.8-0.7c0-1.9,0-3.8,0-5.8c0-0.6-0.1-1.1-0.1-1.7c-0.3-1.6-0.9-2.3-2.4-2.4c-1.4-0.1-2.5,0.6-3,2.1
			c-0.2,0.7-0.2,1.3-0.2,2c0,1.8,0,3.6,0,5.4c0,0.6,0.1,1.1-0.8,1.1c-0.8,0-0.9-0.4-0.9-1c0-3.3,0-6.6,0-9.8c0-0.7,0.1-1,0.9-1
			c0.8,0,0.8,0.4,0.8,1C840.9,1059,840.9,1059.2,840.9,1059.6z"/>
		<path class="st2" d="M775.6,1059.7c1-1.3,2-2,3.3-2c2.1-0.1,3.6,1.1,3.9,3.2c0.3,2.7,0.1,5.4,0.1,8.1c0,0.7-0.4,0.6-0.9,0.6
			c-0.6,0-0.8-0.2-0.8-0.7c0-1.8,0-3.7,0-5.5c0-0.6-0.1-1.3-0.2-1.9c-0.2-1.5-0.9-2.2-2.3-2.3c-1.4-0.1-2.5,0.5-3,1.8
			c-0.3,0.8-0.3,1.6-0.3,2.5c0,1.8,0,3.6,0,5.4c0,0.7-0.3,0.8-0.8,0.8c-0.6,0-0.9-0.1-0.8-0.8c0-3.4,0-6.7,0-10.1c0-0.7,0.1-1,0.9-1
			c0.8,0,0.8,0.4,0.8,1C775.6,1059,775.6,1059.2,775.6,1059.7z"/>
		<path class="st2" d="M1200.5,1059.7c0.8-1.1,1.6-1.7,2.6-1.9c2.6-0.5,4.6,0.9,4.7,3.6c0.1,2.6,0,5.1,0.1,7.7
			c0,0.7-0.4,0.7-0.8,0.7c-0.5,0-0.9,0-0.8-0.7c0-1.9,0-3.8,0-5.8c0-0.6,0-1.1-0.1-1.7c-0.2-1.6-1.1-2.4-2.6-2.4
			c-1.4,0-2.5,0.8-2.8,2.3c-0.3,1.3-0.1,2.6-0.2,3.9c0,1.1,0,2.2,0,3.4c0,0.6,0,1-0.8,1c-0.7,0-0.9-0.3-0.9-0.9c0-3.4,0-6.7,0-10.1
			c0-0.6,0.1-0.9,0.8-0.9c0.7,0,0.9,0.3,0.8,0.9C1200.4,1058.9,1200.5,1059.1,1200.5,1059.7z"/>
		<path class="st2" d="M941,1059.5c1-1.3,2.1-1.9,3.6-1.9c2,0.1,3.4,1.4,3.5,3.5c0.1,2.6,0,5.2,0.1,7.8c0,0.6-0.3,0.7-0.8,0.7
			c-0.6,0-0.9-0.1-0.9-0.8c0-1.8,0-3.6,0-5.4c0-0.5,0-1-0.1-1.6c-0.1-1.9-1-2.8-2.7-2.8c-1.5,0-2.7,1.1-2.8,2.8
			c-0.1,2.3-0.1,4.6,0,6.8c0,0.7-0.2,0.9-0.9,0.9c-0.8,0-0.8-0.5-0.8-1c0-3.3,0-6.6,0-9.8c0-0.6-0.1-1.1,0.8-1.1
			c0.9,0,0.9,0.5,0.8,1.1C940.9,1059,940.9,1059.2,941,1059.5z"/>
		<path class="st2" d="M883.4,1059.5c0.8-1,1.6-1.6,2.8-1.8c2.5-0.3,4.3,1.1,4.4,3.6c0.1,2.6,0,5.1,0.1,7.7c0,0.6-0.2,0.7-0.8,0.7
			c-0.5,0-0.9-0.1-0.9-0.8c0-2.4,0-4.9-0.1-7.3c-0.1-1.4-0.9-2.2-2.1-2.4c-1.4-0.2-2.6,0.3-3.2,1.6c-0.3,0.7-0.3,1.4-0.3,2.1
			c0,1.8,0,3.7,0,5.5c0,0.6,0.3,1.3-0.8,1.3c-1,0-0.8-0.7-0.8-1.2c0-3.2,0-6.3,0-9.5c0-0.5-0.3-1.2,0.8-1.2c1,0,0.8,0.6,0.9,1.2
			C883.3,1059.1,883.3,1059.2,883.4,1059.5z"/>
		<path class="st2" d="M824.8,1068.3c2.1,0,3.8,0,5.6,0c0.5,0,0.9-0.1,0.9,0.7c0,0.7-0.4,0.7-0.9,0.7c-2.2,0-4.5,0-6.7,0
			c-0.3,0-0.8,0.2-1-0.2c-0.2-0.5,0-0.9,0.3-1.3c1.7-2.4,3.4-4.8,5.1-7.3c0.3-0.4,1-0.9,0.8-1.4s-1-0.2-1.5-0.2c-1.2,0-2.5,0-3.7,0
			c-0.5,0-0.7-0.1-0.7-0.7s0.2-0.8,0.8-0.8c2.3,0,4.6,0,7,0c0.8,0,1,0.6,0.5,1.4c-0.8,1.2-1.6,2.4-2.5,3.5
			C827.4,1064.6,826.2,1066.3,824.8,1068.3z"/>
		<path class="st2" d="M954.8,1057.7c0.9,0,1.9,0.3,2.9,0.9c0.4,0.2,0.6,0.5,0.2,0.9c-0.3,0.3-0.4,0.8-1,0.4
			c-0.8-0.6-1.7-0.9-2.7-0.8c-0.8,0.1-1.5,0.4-1.7,1.3c-0.2,0.8,0.3,1.4,0.9,1.7c0.9,0.5,1.8,0.9,2.7,1.3c1.9,1,2.5,2.2,2.1,3.8
			c-0.4,1.6-1.9,2.6-3.9,2.5c-1.3,0-2.4-0.4-3.5-1.2c-0.4-0.3-0.7-0.5-0.3-1c0.3-0.4,0.5-0.7,1.1-0.3c0.9,0.7,2,1.1,3.1,1
			c0.9-0.1,1.6-0.4,1.8-1.3c0.3-0.9-0.2-1.6-1-2c-0.9-0.5-1.8-0.9-2.7-1.3c-1.9-1-2.5-2.1-2-3.7
			C951.4,1058.6,952.8,1057.7,954.8,1057.7z"/>
		<path class="st2" d="M1230.4,1069.8c-0.7,0-1.8-0.4-2.8-1c-0.4-0.3-1-0.4-0.4-1.1c0.4-0.6,0.7-0.5,1.2-0.1c1,0.7,2.1,1,3.3,0.8
			c0.8-0.1,1.3-0.5,1.5-1.3s-0.2-1.4-0.8-1.8c-0.9-0.5-1.9-0.9-2.8-1.4c-1.9-1-2.6-2.1-2.1-3.8c0.4-1.5,1.8-2.4,3.8-2.3
			c0.9,0,1.8,0.3,2.6,0.7c0.3,0.2,1,0.2,0.6,1c-0.3,0.6-0.6,0.8-1.3,0.4c-0.8-0.6-1.7-0.8-2.7-0.6c-0.7,0.1-1.3,0.5-1.4,1.3
			c-0.2,0.7,0.2,1.3,0.8,1.6c0.9,0.5,1.9,1,2.9,1.5c1.9,1,2.5,2.2,2.1,3.8C1234.4,1068.9,1232.9,1069.9,1230.4,1069.8z"/>
		<path class="st2" d="M961.6,1064.5c0-1.4,0-2.9,0-4.3c0-0.6-0.1-0.9-0.8-0.8c-0.6,0.1-0.7-0.3-0.7-0.8s0.2-0.7,0.7-0.7
			c1,0.1,0.7-0.6,0.8-1.1c0.1-2.9,1.6-3.7,4-3.6c0.8,0.1,0.9,0.5,0.8,1.1c-0.1,0.9-0.6,0.4-1,0.3c-0.7-0.1-1.4,0-1.8,0.7
			c-0.5,0.7-0.4,1.4-0.3,2.2c0,0.3,0.3,0.3,0.6,0.3c0.6,0,1.1,0,1.7,0c0.5,0,0.8,0.1,0.8,0.7s-0.2,0.7-0.8,0.8
			c-0.7,0-1.8-0.4-2.1,0.2c-0.4,0.6-0.2,1.5-0.2,2.3c0,2.3,0,4.6,0,7c0,0.6-0.1,0.9-0.9,0.9c-0.7,0-0.9-0.3-0.9-0.9
			C961.6,1067.4,961.6,1065.9,961.6,1064.5z"/>
		<path class="st2" d="M1132,1063.8c0-3.9,2.6-6.5,6.1-6c0.8,0.1,1.5,0.4,2.2,0.9c0.4,0.3,0.8,0.6,0.3,1.2c-0.4,0.5-0.7,0.5-1.2,0.1
			c-1.9-1.4-4.1-0.9-5.1,1.2c-0.8,1.7-0.8,3.5,0,5.2c1,2.1,3.3,2.6,5.1,1.2c0.6-0.4,0.8-0.5,1.3,0.1c0.5,0.7-0.1,0.9-0.4,1.1
			c-2.4,2-6.1,1.1-7.5-1.7C1132.2,1066.1,1132,1064.9,1132,1063.8z"/>
		<path class="st2" d="M913.1,1063.6c0-1,0-1.9,0-2.9c0-0.7,0.2-1.5-1.1-1.4c-0.6,0.1-0.3-0.5-0.4-0.8c0-0.4,0-0.7,0.5-0.6
			c1,0.2,1-0.5,0.9-1.1c0-0.5,0-1,0-1.4c-0.1-0.7,0.2-0.9,0.8-0.9c0.8,0,0.9,0.3,0.8,0.9c0,0.1,0,0.2,0,0.2c0,2.2,0,2.2,2.2,2.3
			c0.5,0,0.9,0,0.9,0.8c0,0.7-0.4,0.7-0.9,0.7c-2.2,0.1-2.2,0.1-2.2,2.3c0,1.6,0,3.2,0,4.8c0,1.5,0.7,2.1,2.2,1.9
			c0.3,0,0.7-0.5,0.8,0.2c0.1,0.4,0.2,0.8-0.4,1.1c-1.8,1-4.2-0.3-4.3-2.3C913.1,1066.1,913.1,1064.8,913.1,1063.6L913.1,1063.6z"/>
		<path class="st2" d="M922.1,1060.3c0.9-1.3,1.7-2.2,3-2.5c0.3-0.1,1-0.4,1,0.3c0,0.5,0.5,1.2-0.6,1.4c-2,0.4-3,1.5-3.3,3.6
			c-0.2,1.9-0.1,3.7-0.1,5.6c0,0.6-0.1,1-0.8,1c-0.8,0-0.8-0.4-0.8-1c0-3.4,0-6.7,0-10.1c0-0.7,0.3-0.9,0.9-0.9
			c0.7,0,0.8,0.4,0.7,0.9C922,1059.1,922.1,1059.5,922.1,1060.3z"/>
		<path class="st2" d="M799.4,1060.4c0.9-1.5,1.9-2.4,3.3-2.6c0.3,0,0.8-0.1,0.7,0.5c-0.1,0.4,0.4,1-0.4,1.3
			c-2.9,0.9-3.6,1.9-3.6,4.9c0,1.5,0,3,0,4.4c0,0.6-0.1,0.9-0.8,0.9c-0.6,0-0.9-0.1-0.9-0.9c0-3.4,0-6.8,0-10.2
			c0-0.8,0.3-0.8,0.9-0.8c0.7,0,0.8,0.3,0.7,0.9C799.3,1059.1,799.4,1059.6,799.4,1060.4z"/>
		<path class="st2" d="M982.2,1060.4c0.9-1.5,1.8-2.4,3.3-2.6c0.3,0,0.8-0.2,0.8,0.4c0,0.5,0.4,1.1-0.5,1.3
			c-2.7,0.7-3.5,1.9-3.6,4.7c0,1.6,0,3.1,0,4.7c0,0.6-0.2,0.8-0.8,0.8s-0.9-0.1-0.9-0.8c0-3.4,0-6.9,0-10.3c0-0.7,0.2-0.8,0.8-0.8
			s0.9,0.1,0.9,0.8C982.2,1059.1,982.2,1059.6,982.2,1060.4z"/>
		<path class="st2" d="M1093.8,1061.4c0-2.4,0-4.8,0-7.2c0-0.6,0.1-0.9,0.8-0.9c0.7,0,0.9,0.2,0.9,0.9c0,4.9,0,9.8,0,14.6
			c0,0.6-0.1,0.9-0.8,0.9c-0.7,0-0.9-0.2-0.9-0.9C1093.8,1066.3,1093.8,1063.8,1093.8,1061.4z"/>
		<path class="st2" d="M1009.1,1063.9c0,1.7,0,3.3,0,5c0,0.6-0.2,0.8-0.8,0.8s-0.9-0.1-0.9-0.8c0-3.4,0-6.9,0-10.3
			c0-0.6,0.2-0.8,0.8-0.8s0.9,0.1,0.9,0.8C1009.1,1060.4,1009.1,1062.1,1009.1,1063.9z"/>
		<path class="st2" d="M1212.8,1063.7c0,1.7,0,3.4,0,5.1c0,0.6-0.2,0.8-0.8,0.8c-0.6,0-0.8-0.2-0.8-0.8c0-3.4,0-6.9,0-10.3
			c0-0.6,0.2-0.8,0.8-0.8c0.5,0,0.9,0,0.9,0.8C1212.8,1060.3,1212.8,1062,1212.8,1063.7z"/>
		<path class="st2" d="M834.1,1063.7c0-1.7,0-3.4,0-5c0-0.6,0.1-0.9,0.8-0.8c0.7,0,0.9,0.2,0.9,0.9c0,3.4,0,6.7,0,10.1
			c0,0.7-0.2,0.9-0.9,0.9c-0.8,0-0.8-0.4-0.8-1C834.2,1067.1,834.1,1065.4,834.1,1063.7z"/>
		<path class="st2" d="M819.9,1063.7c0,1.7,0,3.4,0,5.1c0,0.6-0.2,0.8-0.8,0.8s-0.8-0.2-0.8-0.8c0-3.4,0-6.8,0-10.2
			c0-0.7,0.2-0.9,0.9-0.9s0.8,0.3,0.8,0.9C819.9,1060.4,819.9,1062,819.9,1063.7z"/>
		<path class="st2" d="M1212,1055.4c-1,0.2-0.9-0.4-1-1c-0.1-0.8,0.3-0.9,1-0.9c1-0.1,0.9,0.5,0.9,1.1
			C1212.9,1055.3,1212.7,1055.6,1212,1055.4z"/>
		<path class="st2" d="M820,1054.5c0.1,0.7,0,1-0.8,1c-0.7,0-1.1-0.1-1-1c0-0.6,0.1-1,0.9-1C819.7,1053.5,820.2,1053.6,820,1054.5z"
			/>
		<path class="st2" d="M1008.3,1055.4c-0.9,0.2-0.9-0.3-0.9-0.9s0-1,0.9-1s0.9,0.4,1,1.1C1009.3,1055.3,1009,1055.6,1008.3,1055.4z"
			/>
		<path class="st2" d="M835,1055.4c-0.7,0.1-1-0.1-1-0.8c0-0.6,0-1.1,0.9-1.1c0.8,0,1,0.3,1,1C835.9,1055.1,835.8,1055.6,835,1055.4
			z"/>
		<path class="st0" d="M1219.8,999.2c0.1,5.8-0.7,11.4-3.7,16.5c-3.3,5.8-8.3,9.1-15.1,9.1c-6.9,0-12-3.2-15.4-9.1
			c-2.8-4.9-3.7-10.2-3.8-15.8c-0.1-6,0.7-11.9,3.6-17.3c3.2-5.9,8.1-9.3,14.9-9.3c7-0.1,12.2,3.1,15.7,9.1
			c2.3,4.1,3.3,8.5,3.6,13.2C1219.9,996.8,1219.8,998,1219.8,999.2z"/>
		<path class="st0" d="M779.5,1014.2c0-3,0-5.9,0-8.9c0-0.6,0.1-0.9,0.8-0.9c4.6,0.1,9.3-0.1,13.8,1.1c3.4,0.9,6.3,2.4,7.1,6.1
			c1,5-0.6,9.2-6.4,11.1c-4.8,1.5-9.8,1.4-14.7,1.4c-0.7,0-0.6-0.5-0.6-0.9C779.5,1020.1,779.5,1017.2,779.5,1014.2z"/>
		<path class="st0" d="M779.5,983c0-2.8,0-5.6,0-8.4c0-0.5-0.1-1,0.6-1c4.1,0.1,8.3-0.2,12.4,0.8c6,1.5,8.1,5.5,6.8,11.3
			c-0.8,3.3-3.3,4.9-6.4,5.7c-4.2,1.1-8.5,1-12.7,1c-0.8,0-0.7-0.4-0.7-0.9C779.5,988.8,779.5,985.9,779.5,983z"/>
		<path class="st0" d="M1114.6,984c0-2.9,0-5.8,0-8.6c0-0.6,0.1-0.9,0.8-0.9c4.2,0.1,8.4-0.1,12.5,0.8c3.3,0.7,6.2,2,7.1,5.6
			c1.2,5-0.3,9.9-6.7,11.6c-3.8,1-7.7,1.1-11.7,1.1c-2,0-2,0-2-2C1114.6,989,1114.6,986.5,1114.6,984z"/>
		<path class="st0" d="M1119.4,1068.4c-1.6,0-2.4-0.5-2.9-1.5c-0.6-1.2-0.4-2.3,0.3-3.4c0.2-0.2,0.4-0.4,0.6-0.6
			c1.1-1,1.3-1,2.2,0.1c0.8,1,1.6,2,2.5,2.9c0.4,0.4,0.4,0.7,0,1.1C1121.1,1067.8,1120.2,1068.4,1119.4,1068.4z"/>
		<path class="st0" d="M1122,1057.1c0,1.1-1.6,3.1-2.5,3c-0.4,0-1.6-2.1-1.6-2.8c0-1.3,0.9-2.3,2.1-2.3
			C1121.1,1055,1122,1055.9,1122,1057.1z"/>
		<path class="st0" d="M859.4,1063.2c0,1-0.2,1.9-0.8,2.7c-0.8,1-1.8,1.6-3.1,1.4s-2.1-0.9-2.5-2.1c-0.5-1.2-0.5-2.4-0.1-3.6
			c0.5-1.7,1.8-2.5,3.4-2.4c1.6,0.1,2.9,1.5,3.2,3.2C859.4,1062.7,859.4,1063,859.4,1063.2z"/>
		<path class="st0" d="M1032.7,1063.1c0,1.2-0.2,2.2-0.9,3c-1.6,2-4.4,1.6-5.5-0.7c-0.5-1.1-0.5-2.2-0.3-3.4
			c0.4-1.8,1.6-2.8,3.2-2.8s3,1.2,3.4,2.8C1032.7,1062.4,1032.7,1062.8,1032.7,1063.1z"/>
		<path class="st0" d="M806.3,1063.5c0-0.8,0.1-1.4,0.2-1.9c0.5-1.4,1.5-2.3,2.8-2.4c1.5-0.1,2.6,0.6,3.3,1.9
			c0.6,1.2,0.7,2.5,0.2,3.8c-0.5,1.5-1.9,2.5-3.3,2.4c-1.5,0-2.6-1.1-3.1-2.7C806.3,1064.2,806.3,1063.7,806.3,1063.5z"/>
		<path class="st0" d="M901.8,1063.9c-0.1,1.2-0.3,2.5-1.3,3.5c-1.4,1.5-3.6,1.3-4.7-0.4c-1.1-1.6-1.2-4.7-0.1-6.4
			c1.2-1.8,3.6-1.9,5-0.3C901.4,1061.2,901.8,1062.4,901.8,1063.9z"/>
		<path class="st0" d="M1052.1,1063.9c0,1.1-0.2,2.1-0.7,3c-1.1,1.8-3.3,2.1-4.8,0.6c-1.9-1.8-1.8-5.6,0-7.4
			c1.5-1.4,3.5-1.2,4.7,0.5C1051.8,1061.4,1052.1,1062.5,1052.1,1063.9z"/>
		<path class="st0" d="M1082.3,1063.9c0-1.5,0.3-2.8,1.3-3.8c1.5-1.5,3.7-1.3,4.7,0.5c1.2,2,1.2,4.1,0.1,6.2c-1,1.9-3.4,2.2-4.9,0.5
			C1082.6,1066.3,1082.3,1065.1,1082.3,1063.9z"/>
		<path class="st0" d="M1176.1,1063.8c0-1.4,0.3-2.6,1.3-3.6c1.5-1.5,3.7-1.3,4.8,0.5c1.2,2,1.2,4.2,0.1,6.2c-1,1.9-3.4,2.1-4.9,0.6
			C1176.4,1066.4,1176.1,1065.1,1176.1,1063.8z"/>
		<path class="st0" d="M1220.5,1063.1c-0.6,0-1.3,0-1.9,0c-1.3,0-1.3-0.1-1-1.4c0.3-1.2,0.9-2.2,2.2-2.6c1.9-0.5,3.9,1.4,3.7,3.5
			c-0.1,0.5-0.4,0.4-0.7,0.4C1222.1,1063.1,1221.3,1063.1,1220.5,1063.1z"/>
		<path class="st0" d="M1103.1,1063.1c-0.6,0-1.2,0-1.8,0c-1.4,0-1.5,0-1.1-1.4c0.4-1.7,1.7-2.8,3.2-2.6c1.5,0.1,2.6,1.6,2.7,3.3
			c0,0.5-0.1,0.7-0.6,0.7C1104.7,1063.1,1103.9,1063.1,1103.1,1063.1z"/>
		<path class="st0" d="M932.2,1063.7c0.1,0,0.2,0,0.3,0c2.1,0.2,2.5,0.8,1.8,2.8c-0.6,1.6-2.7,2.5-4.3,1.7c-1-0.5-1.3-1.3-1.2-2.4
			s0.8-1.8,1.9-2.1C931.1,1063.7,931.7,1063.6,932.2,1063.7z"/>
		<path class="st0" d="M766.5,1063.1c-0.6,0-1.1,0-1.7,0c-1.5,0-1.6,0-1.2-1.5c0.5-1.7,1.9-2.7,3.5-2.4c1.3,0.2,2.5,2,2.5,3.4
			c0,0.5-0.2,0.5-0.6,0.5C768.2,1063.1,767.4,1063.1,766.5,1063.1z"/>
		<path class="st0" d="M790.2,1063.1c-0.6,0-1.3-0.1-1.9,0c-1.1,0.1-1.2-0.4-1-1.2c0.4-1.8,1.7-2.9,3.2-2.8s2.7,1.7,2.8,3.4
			c0,0.5-0.2,0.6-0.6,0.6C791.9,1063.1,791.1,1063.1,790.2,1063.1z"/>
		<path class="st0" d="M876.9,1065.1c0,2.4-2,4-4.1,3.3c-1.1-0.4-1.7-1.3-1.7-2.5c0.1-1.1,0.8-1.9,1.9-2.2c0.9-0.2,1.8-0.1,2.7,0
			C876.6,1063.9,877.1,1064.3,876.9,1065.1z"/>
		<path class="st0" d="M1060.6,1063.1c-0.5,0-1,0-1.6,0c-1.7,0-1.7,0-1.2-1.6c0.5-1.7,1.9-2.6,3.4-2.3c1.6,0.2,2.3,2.1,2.5,3.5
			c0.1,0.5-0.3,0.4-0.6,0.4C1062.3,1063.1,1061.5,1063.1,1060.6,1063.1z"/>
		<path class="st0" d="M1194.1,1065c0,2.5-2,4.1-4.1,3.3c-1.1-0.4-1.6-1.2-1.6-2.4c0-1.1,0.7-2,1.8-2.2c1-0.2,2-0.1,3,0.1
			C1193.9,1063.9,1194.3,1064.3,1194.1,1065z"/>
		<path class="st0" d="M1069.1,1063.8c0.1-1.1,0.2-2.2,0.8-3.1c1.3-2,3.9-2.1,5.3-0.2c1.3,1.7,1.3,4.7,0.1,6.4c-1.4,2-3.9,2-5.3,0
			C1069.4,1066,1069.2,1064.9,1069.1,1063.8z"/>
		<path class="st0" d="M969,1063.8c0-1.1,0.2-2.1,0.8-3c1.3-2.1,4.1-2.2,5.4-0.1c1.2,1.8,1.2,3.8,0.3,5.8c-0.6,1.2-1.5,1.9-2.9,1.9
			s-2.3-0.7-2.9-1.9C969.2,1065.6,969.1,1064.7,969,1063.8z"/>
		<path class="st0" d="M1144.2,1063.8c0-1.2,0.2-2.3,0.9-3.3c1.3-1.7,3.5-1.8,5-0.2c1.6,1.7,1.6,5.2,0.1,7c-1.3,1.6-3.6,1.5-4.9,0
			C1144.5,1066.2,1144.2,1065,1144.2,1063.8z"/>
	</g>
</g>
</svg>
