<?xml version="1.0" encoding="utf-8"?>
<!-- Generator: Adobe Illustrator 21.1.0, SVG Export Plug-In . SVG Version: 6.00 Build 0)  -->
<svg version="1.1" id="Ebene_1" xmlns="http://www.w3.org/2000/svg" xmlns:xlink="http://www.w3.org/1999/xlink" x="0px" y="0px"
	 viewBox="0 0 300 100" style="enable-background:new 0 0 300 100;" xml:space="preserve">
<style type="text/css">
	.st0{fill:#1E2243;}
	.st1{fill-rule:evenodd;clip-rule:evenodd;fill:#039539;}
	.st2{fill-rule:evenodd;clip-rule:evenodd;fill:#1E2243;}
	.st3{fill:#039539;}
</style>
<g>
	<path class="st0" d="M0.8,26.2v47.4h16.4c9.6,0,19.5-3,19.5-13c0-6.2-4.1-10.4-11.1-11.3v-0.1c6.7-1.4,9.8-5.6,9.8-10.8
		c0-9.1-7.5-12.2-18.2-12.2L0.8,26.2L0.8,26.2z M11.7,34h3.1c5,0,9.6,0.9,9.6,5.8c0,4.8-3.7,6-10.4,6h-2.3L11.7,34L11.7,34z
		 M11.7,53.3h2.6c7.5,0,11.2,1.6,11.2,5.9c0,4.6-3.5,6.5-11.3,6.5h-2.5L11.7,53.3L11.7,53.3z"/>
	<polygon class="st0" points="44.7,26.2 44.7,73.7 75.5,73.7 75.5,65.1 55.7,65.1 55.7,53.8 73.6,53.8 73.6,45.3 55.7,45.3 
		55.7,34.7 75,34.7 75,26.2 44.7,26.2 	"/>
	<path class="st0" d="M129.8,27c-3.8-1.2-7.7-1.6-12.2-1.6c-10.5,0-18.1,5.1-18.1,14.2c0,6.9,4.3,10.8,12.3,13.7
		c6.8,2.5,8.9,4.2,8.9,7.3c0,3.5-3.3,5.3-8,5.3c-3.3,0-7.6-0.8-11.9-2.8l-1,9.4c4.2,1.4,8.6,2,13.5,2c11.6,0,18.8-5.7,18.8-15.1
		c0-7.2-4.2-11.2-12.8-14.3c-6.7-2.5-8.3-3.9-8.3-6.6c0-3.1,3.2-4.8,7.9-4.8c3.1,0,6.3,0.5,10.3,2L129.8,27L129.8,27z"/>
	<polygon class="st0" points="180.1,26.2 168.8,26.2 168.8,44.7 150.9,44.7 150.9,26.2 139.6,26.2 139.6,73.7 150.9,73.7 
		150.9,53.6 168.8,53.6 168.8,73.7 180.1,73.7 180.1,26.2 	"/>
	<path class="st0" d="M210.8,26.2v47.4h11.3v-19h2.7c4.8,0,6.6,1.4,8.4,6.4l4.6,12.6h12l-7-17.4c-1.5-3.6-3.1-5.4-6.5-6.2V50
		c6.7-1.3,10.3-5.1,10.3-11.3c0-10.2-8.8-12.4-20.7-12.4L210.8,26.2L210.8,26.2z M222.1,34.5h2.5c6.8,0,10.5,1.1,10.5,5.8
		c0,4.5-3.4,6.3-10.5,6.3h-2.5V34.5L222.1,34.5z"/>
	<path class="st0" d="M276.8,25.4c-15,0-24.1,8.8-24.1,24.5c0,15.4,9.2,24.7,23.4,24.7c14.5,0,23.9-9.2,23.9-24.7
		C300,34.7,290.8,25.4,276.8,25.4L276.8,25.4z M276.1,33.8c7.4,0,12.2,6,12.2,16.4c0,9.8-4.8,16-11.9,16c-7.2,0-12-6.2-12-16
		C264.4,40,269.1,33.8,276.1,33.8L276.1,33.8z"/>
	<polygon class="st1" points="197.1,30.8 178.4,5.3 215.8,5.3 197.1,30.8 	"/>
	<polygon class="st2" points="197.1,33.5 201.1,28.2 201.1,73.7 189.8,73.7 189.8,26.2 191.8,26.2 197.1,33.5 	"/>
	<path class="st3" d="M3.8,94.5c1.1,0,1.9-0.4,2.5-1.1l-0.6-0.7c-0.5,0.5-1.1,0.9-1.9,0.9c-1.2,0-2.2-0.9-2.3-2.5h5
		c0-0.1,0-0.3,0-0.4c0-2.2-1.1-3.8-3-3.8c-1.7,0-3.1,1.6-3.1,3.8v0.1C0.5,93.1,2,94.5,3.8,94.5L3.8,94.5z M1.5,90.3
		c0.1-1.6,0.9-2.6,2-2.6c1.2,0,1.9,1.2,1.9,2.6H1.5L1.5,90.3z"/>
	<path class="st3" d="M8.2,94.4h1v-4.5c0-1.3,0.8-2.1,1.9-2.1c1.1,0,1.7,0.7,1.7,2.1v4.6h1v-4.9c0-1.7-0.9-2.7-2.4-2.7
		c-1.1,0-1.8,0.6-2.2,1.4V87h-1L8.2,94.4L8.2,94.4z"/>
	<path class="st3" d="M18.7,94.5c1.1,0,1.9-0.4,2.5-1.1l-0.6-0.7c-0.5,0.5-1.1,0.9-1.9,0.9c-1.2,0-2.2-0.9-2.3-2.5h5
		c0-0.1,0-0.3,0-0.4c0-2.2-1.1-3.8-3-3.8c-1.7,0-3.1,1.6-3.1,3.8v0.1C15.4,93.1,16.9,94.5,18.7,94.5L18.7,94.5z M16.5,90.3
		c0.1-1.6,0.9-2.6,2-2.6c1.2,0,1.9,1.2,1.9,2.6H16.5L16.5,90.3z"/>
	<path class="st3" d="M23.1,94.4h1v-3.5c0-1.9,1.1-2.9,2.5-2.9h0.1v-1.1c-1.2-0.1-2.1,0.7-2.5,1.7V87h-1V94.4L23.1,94.4z"/>
	<path class="st3" d="M30.5,96.6c1.1,0,1.9-0.3,2.5-0.9c0.5-0.5,0.8-1.3,0.8-2.3V87h-1v1.3c-0.5-0.8-1.3-1.5-2.4-1.5
		c-1.5,0-2.9,1.3-2.9,3.5v0.1c0,2.2,1.4,3.5,2.9,3.5c1.2,0,1.9-0.7,2.4-1.5v1.1c0,1.5-0.9,2.2-2.3,2.2c-0.9,0-1.7-0.3-2.4-0.7
		l-0.4,0.8C28.6,96.3,29.5,96.6,30.5,96.6L30.5,96.6z M30.6,93c-1.2,0-2.1-1-2.1-2.6v0c0-1.6,0.9-2.6,2.1-2.6c1.1,0,2.2,1,2.2,2.6v0
		C32.8,92,31.7,93,30.6,93L30.6,93z"/>
	<path class="st3" d="M35.9,85.5h1.1v-1.2h-1.1V85.5L35.9,85.5z M36,94.4h1V87h-1V94.4L36,94.4z"/>
	<polygon class="st3" points="38.8,94.4 44.2,94.4 44.2,93.5 40.1,93.5 44.2,87.6 44.2,87 39,87 39,87.9 42.9,87.9 38.8,93.7 
		38.8,94.4 	"/>
	<path class="st3" d="M45.9,85.5h1.1v-1.2h-1.1V85.5L45.9,85.5z M46,94.4h1V87h-1V94.4L46,94.4z"/>
	<path class="st3" d="M49.2,94.4h1v-4.5c0-1.3,0.8-2.1,1.9-2.1c1.1,0,1.7,0.7,1.7,2.1v4.6h1v-4.9c0-1.7-0.9-2.7-2.4-2.7
		c-1.1,0-1.8,0.6-2.2,1.4V87h-1L49.2,94.4L49.2,94.4z"/>
	<path class="st3" d="M59.6,96.6c1.1,0,1.9-0.3,2.5-0.9c0.5-0.5,0.8-1.3,0.8-2.3V87h-1v1.3c-0.5-0.8-1.3-1.5-2.4-1.5
		c-1.5,0-2.9,1.3-2.9,3.5v0.1c0,2.2,1.4,3.5,2.9,3.5c1.2,0,1.9-0.7,2.4-1.5v1.1c0,1.5-0.9,2.2-2.3,2.2c-0.9,0-1.7-0.3-2.4-0.7
		l-0.4,0.8C57.6,96.3,58.6,96.6,59.6,96.6L59.6,96.6z M59.6,93c-1.2,0-2.1-1-2.1-2.6v0c0-1.6,0.9-2.6,2.1-2.6c1.1,0,2.2,1,2.2,2.6v0
		C61.9,92,60.8,93,59.6,93L59.6,93z"/>
	<path class="st3" d="M70.5,94.5c1.1,0,1.8-0.5,2.3-1.2v1.1h1v-4.8c0-0.9-0.3-1.6-0.7-2c-0.5-0.5-1.2-0.7-2.1-0.7
		c-0.9,0-1.6,0.3-2.3,0.6l0.3,0.8c0.5-0.3,1.2-0.5,1.9-0.5c1.2,0,1.9,0.6,1.9,1.8v0.4c-0.6-0.2-1.1-0.3-1.9-0.3
		c-1.6,0-2.7,0.9-2.7,2.4v0.1C68.2,93.7,69.3,94.5,70.5,94.5L70.5,94.5z M70.8,93.7c-0.9,0-1.6-0.6-1.6-1.5v0c0-0.9,0.7-1.6,1.8-1.6
		c0.7,0,1.3,0.1,1.8,0.3v0.9C72.8,92.9,71.9,93.7,70.8,93.7L70.8,93.7z"/>
	<path class="st3" d="M75.8,94.4h1v-4.5c0-1.3,0.8-2.1,1.9-2.1c1.1,0,1.7,0.7,1.7,2.1v4.6h1v-4.9c0-1.7-0.9-2.7-2.4-2.7
		c-1.1,0-1.8,0.6-2.2,1.4V87h-1V94.4L75.8,94.4z"/>
	<path class="st3" d="M86,94.5c1.2,0,1.9-0.7,2.4-1.6v1.4h1V84.1h-1v4.2c-0.5-0.8-1.2-1.5-2.4-1.5c-1.5,0-3,1.3-3,3.8v0.1
		C83.1,93.2,84.5,94.5,86,94.5L86,94.5z M86.2,93.6c-1.2,0-2.1-1.1-2.1-2.9v-0.1c0-1.8,0.9-2.9,2.1-2.9c1.2,0,2.2,1.1,2.2,2.9v0.1
		C88.5,92.5,87.4,93.6,86.2,93.6L86.2,93.6z"/>
	<path class="st3" d="M97.4,94.5c0.4,0,0.8-0.1,1.1-0.3v-0.9c-0.3,0.1-0.6,0.2-0.9,0.2c-0.6,0-1.1-0.3-1.1-1.1v-4.6h1.9V87h-1.9
		v-2.2h-1V87h-0.9v0.9h0.9v4.8C95.6,94,96.4,94.5,97.4,94.5L97.4,94.5z"/>
	<path class="st3" d="M100.2,94.4h1v-3.5c0-1.9,1.1-2.9,2.5-2.9h0.1v-1.1c-1.2-0.1-2.1,0.7-2.5,1.7V87h-1V94.4L100.2,94.4z"/>
	<path class="st3" d="M106.7,94.5c1.1,0,1.8-0.5,2.3-1.2v1.1h1v-4.8c0-0.9-0.3-1.6-0.7-2c-0.5-0.5-1.2-0.7-2.1-0.7
		c-0.9,0-1.6,0.3-2.3,0.6l0.3,0.8c0.5-0.3,1.2-0.5,1.9-0.5c1.2,0,1.9,0.6,1.9,1.8v0.4c-0.6-0.2-1.1-0.3-1.9-0.3
		c-1.6,0-2.7,0.9-2.7,2.4v0.1C104.3,93.7,105.5,94.5,106.7,94.5L106.7,94.5z M107,93.7c-0.9,0-1.6-0.6-1.6-1.5v0
		c0-0.9,0.7-1.6,1.8-1.6c0.7,0,1.3,0.1,1.8,0.3v0.9C109,92.9,108.1,93.7,107,93.7L107,93.7z"/>
	<path class="st3" d="M112,94.4h1v-4.5c0-1.3,0.8-2.1,1.9-2.1c1.1,0,1.7,0.7,1.7,2.1v4.6h1v-4.9c0-1.7-0.9-2.7-2.4-2.7
		c-1.1,0-1.8,0.6-2.2,1.4V87h-1V94.4L112,94.4z"/>
	<path class="st3" d="M121.6,94.5c1.3,0,2.4-0.8,2.4-2.1v0c0-1.1-0.9-1.6-2.1-2.2c-1-0.4-1.7-0.7-1.7-1.4v0c0-0.6,0.5-1,1.3-1
		c0.7,0,1.3,0.3,1.9,0.7l0.5-0.8c-0.6-0.5-1.5-0.8-2.3-0.8c-1.3,0-2.3,0.8-2.3,2v0c0,1.2,0.9,1.6,2.1,2.1c1,0.4,1.6,0.8,1.6,1.4v0
		c0,0.7-0.6,1.2-1.4,1.2c-0.7,0-1.5-0.3-2.2-0.9l-0.5,0.8C119.7,94.2,120.7,94.5,121.6,94.5L121.6,94.5z"/>
	<path class="st3" d="M126,94.4h1v-6.5h1.9V87h-1.9v-0.6c0-0.9,0.4-1.4,1.1-1.4c0.3,0,0.5,0.1,0.8,0.1v-0.9c-0.3-0.1-0.6-0.1-1-0.1
		c-0.6,0-1.1,0.2-1.4,0.5c-0.4,0.4-0.6,1-0.6,1.7V87h-0.9v0.9h0.9V94.4L126,94.4z"/>
	<path class="st3" d="M133,94.5c1.9,0,3.3-1.7,3.3-3.8v-0.1c0-2.2-1.4-3.8-3.3-3.8c-1.9,0-3.3,1.7-3.3,3.8v0.1
		C129.7,92.9,131,94.5,133,94.5L133,94.5z M133,93.6c-1.3,0-2.2-1.2-2.2-2.9v-0.1c0-1.7,0.9-2.9,2.2-2.9c1.3,0,2.3,1.2,2.3,2.9v0.1
		C135.2,92.4,134.3,93.6,133,93.6L133,93.6z"/>
	<path class="st3" d="M138,94.4h1v-3.5c0-1.9,1.1-2.9,2.5-2.9h0.1v-1.1c-1.2-0.1-2.1,0.7-2.5,1.7V87h-1V94.4L138,94.4z"/>
	<path class="st3" d="M143,94.4h1v-4.5c0-1.3,0.8-2.1,1.7-2.1c1,0,1.6,0.7,1.6,2v4.6h1v-4.5c0-1.3,0.8-2.1,1.7-2.1
		c1,0,1.6,0.7,1.6,2.1v4.6h1v-4.8c0-1.7-0.9-2.7-2.4-2.7c-1.1,0-1.8,0.6-2.3,1.4c-0.4-0.8-1.1-1.4-2-1.4c-1.1,0-1.7,0.6-2.1,1.3V87
		h-1V94.4L143,94.4z"/>
	<path class="st3" d="M154.8,85.5h1.1v-1.2h-1.1V85.5L154.8,85.5z M154.9,94.4h1V87h-1V94.4L154.9,94.4z"/>
	<path class="st3" d="M158.1,94.4h1v-4.5c0-1.3,0.8-2.1,1.9-2.1c1.1,0,1.7,0.7,1.7,2.1v4.6h1v-4.9c0-1.7-0.9-2.7-2.4-2.7
		c-1.1,0-1.8,0.6-2.2,1.4V87h-1V94.4L158.1,94.4z"/>
	<path class="st3" d="M168.5,96.6c1.1,0,1.9-0.3,2.5-0.9c0.5-0.5,0.8-1.3,0.8-2.3V87h-1v1.3c-0.5-0.8-1.3-1.5-2.4-1.5
		c-1.5,0-2.9,1.3-2.9,3.5v0.1c0,2.2,1.4,3.5,2.9,3.5c1.2,0,1.9-0.7,2.4-1.5v1.1c0,1.5-0.9,2.2-2.3,2.2c-0.9,0-1.7-0.3-2.4-0.7
		l-0.4,0.8C166.5,96.3,167.5,96.6,168.5,96.6L168.5,96.6z M168.5,93c-1.2,0-2.1-1-2.1-2.6v0c0-1.6,0.9-2.6,2.1-2.6
		c1.1,0,2.2,1,2.2,2.6v0C170.7,92,169.6,93,168.5,93L168.5,93z"/>
	<path class="st3" d="M177.5,96.5h1V93c0.5,0.8,1.2,1.5,2.4,1.5c1.5,0,3-1.3,3-3.8v-0.1c0-2.5-1.5-3.8-3-3.8c-1.2,0-1.9,0.7-2.4,1.6
		V87h-1V96.5L177.5,96.5z M180.8,93.6c-1.2,0-2.2-1.1-2.2-2.8v-0.1c0-1.7,1.1-2.9,2.2-2.9c1.1,0,2.1,1.1,2.1,2.9v0.1
		C182.9,92.6,181.9,93.6,180.8,93.6L180.8,93.6z"/>
	<path class="st3" d="M188.5,94.5c1.1,0,1.9-0.4,2.5-1.1l-0.6-0.7c-0.5,0.5-1.1,0.9-1.9,0.9c-1.2,0-2.2-0.9-2.3-2.5h5
		c0-0.1,0-0.3,0-0.4c0-2.2-1.1-3.8-3-3.8c-1.7,0-3.1,1.6-3.1,3.8v0.1C185.2,93.1,186.7,94.5,188.5,94.5L188.5,94.5z M186.3,90.3
		c0.1-1.6,0.9-2.6,2-2.6c1.2,0,1.9,1.2,1.9,2.6H186.3L186.3,90.3z"/>
	<path class="st3" d="M195.8,94.5c1.9,0,3.3-1.7,3.3-3.8v-0.1c0-2.2-1.4-3.8-3.3-3.8c-1.9,0-3.3,1.7-3.3,3.8v0.1
		C192.5,92.9,193.9,94.5,195.8,94.5L195.8,94.5z M195.8,93.6c-1.3,0-2.2-1.2-2.2-2.9v-0.1c0-1.7,0.9-2.9,2.2-2.9
		c1.3,0,2.3,1.2,2.3,2.9v0.1C198.1,92.4,197.1,93.6,195.8,93.6L195.8,93.6z"/>
	<path class="st3" d="M200.8,96.5h1V93c0.5,0.8,1.2,1.5,2.4,1.5c1.5,0,3-1.3,3-3.8v-0.1c0-2.5-1.5-3.8-3-3.8c-1.2,0-1.9,0.7-2.4,1.6
		V87h-1V96.5L200.8,96.5z M204.1,93.6c-1.2,0-2.2-1.1-2.2-2.8v-0.1c0-1.7,1.1-2.9,2.2-2.9c1.1,0,2.1,1.1,2.1,2.9v0.1
		C206.2,92.6,205.2,93.6,204.1,93.6L204.1,93.6z"/>
	<polygon class="st3" points="209,94.4 210.1,94.4 210.1,84.1 209,84.1 209,94.4 	"/>
	<path class="st3" d="M215.1,94.5c1.1,0,1.9-0.4,2.5-1.1l-0.6-0.7c-0.5,0.5-1.1,0.9-1.9,0.9c-1.2,0-2.2-0.9-2.3-2.5h5
		c0-0.1,0-0.3,0-0.4c0-2.2-1.1-3.8-3-3.8c-1.7,0-3.1,1.6-3.1,3.8v0.1C211.9,93.1,213.3,94.5,215.1,94.5L215.1,94.5z M212.9,90.3
		c0.1-1.6,0.9-2.6,2-2.6c1.2,0,1.9,1.2,1.9,2.6H212.9L212.9,90.3z"/>
	<path class="st3" d="M229,94.6l0.8-0.6l-1.5-1.7c0.5-0.7,0.8-1.6,1.2-2.5l-0.9-0.4c-0.3,0.8-0.6,1.5-1,2.2l-2-2.4
		c1.3-0.6,2.1-1.4,2.1-2.6v0c0-1.2-0.9-2.1-2.2-2.1c-1.4,0-2.4,1-2.4,2.2v0c0,0.8,0.3,1.4,1,2.3c-1.4,0.7-2.2,1.7-2.2,3v0
		c0,1.6,1.2,2.7,2.8,2.7c1.2,0,2.1-0.6,2.9-1.5L229,94.6L229,94.6z M225.1,88.4c-0.7-0.9-0.9-1.3-0.9-1.9v0c0-0.8,0.6-1.4,1.4-1.4
		c0.7,0,1.3,0.6,1.3,1.3v0C226.8,87.3,226.2,87.9,225.1,88.4L225.1,88.4z M224.9,93.6c-1.1,0-1.8-0.8-1.8-1.8v0
		c0-0.8,0.5-1.7,1.6-2.2l2.4,2.8C226.5,93.1,225.8,93.6,224.9,93.6L224.9,93.6z"/>
	<path class="st3" d="M236.3,94.5c1.1,0,1.8-0.5,2.4-1.1l-0.6-0.7c-0.5,0.5-1,0.9-1.7,0.9c-1.3,0-2.3-1.1-2.3-2.9v-0.1
		c0-1.7,1-2.9,2.2-2.9c0.8,0,1.3,0.4,1.7,0.8l0.6-0.8c-0.6-0.6-1.3-1-2.3-1c-1.8,0-3.3,1.6-3.3,3.8v0.1
		C233.1,93,234.5,94.5,236.3,94.5L236.3,94.5z"/>
	<path class="st3" d="M242.9,94.5c1.9,0,3.3-1.7,3.3-3.8v-0.1c0-2.2-1.4-3.8-3.3-3.8c-1.9,0-3.3,1.7-3.3,3.8v0.1
		C239.6,92.9,241,94.5,242.9,94.5L242.9,94.5z M242.9,93.6c-1.3,0-2.2-1.2-2.2-2.9v-0.1c0-1.7,0.9-2.9,2.2-2.9
		c1.3,0,2.3,1.2,2.3,2.9v0.1C245.2,92.4,244.3,93.6,242.9,93.6L242.9,93.6z"/>
	<path class="st3" d="M247.9,94.4h1v-4.5c0-1.3,0.8-2.1,1.7-2.1c1,0,1.6,0.7,1.6,2v4.6h1v-4.5c0-1.3,0.8-2.1,1.7-2.1
		c1,0,1.6,0.7,1.6,2.1v4.6h1v-4.8c0-1.7-0.9-2.7-2.4-2.7c-1.1,0-1.8,0.6-2.3,1.4c-0.4-0.8-1.1-1.4-2-1.4c-1.1,0-1.7,0.6-2.1,1.3V87
		h-1V94.4L247.9,94.4z"/>
	<path class="st3" d="M259.8,96.5h1V93c0.5,0.8,1.2,1.5,2.4,1.5c1.5,0,3-1.3,3-3.8v-0.1c0-2.5-1.5-3.8-3-3.8c-1.2,0-1.9,0.7-2.4,1.6
		V87h-1V96.5L259.8,96.5z M263,93.6c-1.2,0-2.2-1.1-2.2-2.8v-0.1c0-1.7,1.1-2.9,2.2-2.9c1.1,0,2.1,1.1,2.1,2.9v0.1
		C265.1,92.6,264.2,93.6,263,93.6L263,93.6z"/>
	<path class="st3" d="M269.8,94.5c1.1,0,1.8-0.5,2.3-1.2v1.1h1v-4.8c0-0.9-0.3-1.6-0.7-2c-0.5-0.5-1.2-0.7-2.1-0.7
		c-0.9,0-1.6,0.3-2.3,0.6l0.3,0.8c0.5-0.3,1.2-0.5,1.9-0.5c1.2,0,1.9,0.6,1.9,1.8v0.4c-0.6-0.2-1.1-0.3-1.9-0.3
		c-1.6,0-2.7,0.9-2.7,2.4v0.1C267.4,93.7,268.5,94.5,269.8,94.5L269.8,94.5z M270,93.7c-0.9,0-1.6-0.6-1.6-1.5v0
		c0-0.9,0.7-1.6,1.8-1.6c0.7,0,1.3,0.1,1.8,0.3v0.9C272.1,92.9,271.1,93.7,270,93.7L270,93.7z"/>
	<path class="st3" d="M275,94.4h1v-4.5c0-1.3,0.8-2.1,1.9-2.1c1.1,0,1.7,0.7,1.7,2.1v4.6h1v-4.9c0-1.7-0.9-2.7-2.4-2.7
		c-1.1,0-1.8,0.6-2.2,1.4V87h-1V94.4L275,94.4z"/>
	<path class="st3" d="M282.7,85.5h1.1v-1.2h-1.1V85.5L282.7,85.5z M282.8,94.4h1V87h-1V94.4L282.8,94.4z"/>
	<path class="st3" d="M288.9,94.5c1.1,0,1.9-0.4,2.5-1.1l-0.6-0.7c-0.5,0.5-1.1,0.9-1.9,0.9c-1.2,0-2.2-0.9-2.3-2.5h5
		c0-0.1,0-0.3,0-0.4c0-2.2-1.1-3.8-3-3.8c-1.7,0-3.1,1.6-3.1,3.8v0.1C285.6,93.1,287.1,94.5,288.9,94.5L288.9,94.5z M286.6,90.3
		c0.1-1.6,0.9-2.6,2-2.6c1.2,0,1.9,1.2,1.9,2.6H286.6L286.6,90.3z"/>
	<path class="st3" d="M295.3,94.5c1.3,0,2.4-0.8,2.4-2.1v0c0-1.1-0.9-1.6-2.1-2.2c-1-0.4-1.7-0.7-1.7-1.4v0c0-0.6,0.5-1,1.3-1
		c0.7,0,1.3,0.3,1.9,0.7l0.5-0.8c-0.6-0.5-1.5-0.8-2.3-0.8c-1.3,0-2.3,0.8-2.3,2v0c0,1.2,0.9,1.6,2.1,2.1c1,0.4,1.6,0.8,1.6,1.4v0
		c0,0.7-0.6,1.2-1.4,1.2c-0.7,0-1.5-0.3-2.2-0.9l-0.5,0.8C293.4,94.2,294.4,94.5,295.3,94.5L295.3,94.5z"/>
</g>
</svg>
